<?xml version="1.0" encoding="UTF-8" ?>
<!DOCTYPE svg PUBLIC "-//W3C//DTD SVG 1.1//EN" "http://www.w3.org/Graphics/SVG/1.1/DTD/svg11.dtd">
<svg width="700pt" height="700pt" viewBox="0 0 700 700" version="1.1" xmlns="http://www.w3.org/2000/svg">
<path fill="#ffffff" stroke="#ffffff" stroke-width="0.09375" opacity="1.00" d=" M 325.8 13.8 C 329.1 12.5 332.9 13.6 336.2 12.1 C 345.7 11.9 355.3 11.9 364.8 12.1 C 367.9 13.6 371.4 12.5 374.6 13.4 C 398.8 17.4 423.0 24.6 443.6 38.4 C 449.8 42.4 455.7 46.9 461.4 51.6 C 465.7 54.2 468.3 58.8 472.6 61.4 C 474.8 62.8 476.4 65.0 477.8 67.2 C 488.5 77.7 497.3 90.1 505.0 103.0 C 508.4 109.7 512.0 116.4 514.4 123.6 C 515.7 127.1 516.4 130.7 518.1 134.0 C 521.8 134.1 525.7 133.5 529.2 134.9 C 532.9 135.4 536.8 134.3 540.4 135.6 C 556.1 137.4 571.6 141.7 586.3 147.7 C 590.6 149.7 594.8 152.2 599.3 153.7 C 605.0 157.0 610.5 160.5 616.2 163.8 C 621.1 167.1 625.7 171.0 630.6 174.4 C 634.2 177.1 636.7 181.1 640.6 183.4 C 642.8 184.8 644.4 187.0 645.8 189.2 C 648.4 192.2 651.6 194.8 654.2 197.8 C 657.8 202.9 661.7 207.7 665.2 212.8 C 667.9 217.4 670.6 222.0 673.6 226.4 C 675.7 232.3 679.1 237.7 681.6 243.4 C 686.6 255.7 690.0 268.6 692.4 281.6 C 693.5 284.4 692.5 287.6 693.6 290.4 C 694.7 294.9 693.0 299.8 694.9 304.2 C 695.1 310.1 695.1 315.9 694.9 321.8 C 693.7 324.4 694.0 327.2 694.0 330.0 C 691.2 350.0 685.1 369.7 675.7 387.7 C 674.0 391.0 672.4 394.4 670.6 397.6 C 666.8 402.9 664.0 408.8 659.8 413.9 C 656.6 418.3 653.2 422.6 649.8 426.8 C 643.8 432.4 638.5 438.9 631.8 443.8 C 628.7 446.5 625.2 448.7 622.0 451.3 C 621.4 455.6 623.6 459.4 624.4 463.6 C 625.9 469.6 627.6 475.6 628.2 481.8 C 629.5 485.1 628.4 488.9 629.9 492.2 C 630.2 501.1 629.9 510.1 630.0 519.0 C 628.3 540.5 622.9 561.9 613.4 581.4 C 612.3 585.6 609.5 588.9 607.7 592.7 C 601.1 604.4 593.1 615.2 584.3 625.3 C 579.7 629.7 575.3 634.3 570.7 638.7 C 565.6 642.6 560.8 646.8 555.6 650.6 C 548.9 654.1 543.3 659.3 536.3 662.3 C 530.1 665.6 523.7 668.5 517.1 671.1 C 510.8 672.9 504.9 676.1 498.4 677.4 C 492.3 679.7 485.8 680.3 479.4 681.4 C 475.6 682.7 471.5 681.2 467.8 682.9 C 461.9 683.2 455.9 682.9 450.0 683.0 C 448.2 683.1 446.5 682.7 444.8 682.1 C 441.1 681.7 437.3 682.6 433.8 681.2 C 429.7 681.1 425.8 680.0 421.8 679.2 C 415.1 678.6 408.8 676.2 402.4 674.6 C 384.7 669.2 367.8 661.0 353.2 649.7 C 351.2 647.9 348.6 649.5 346.8 650.8 C 323.5 667.4 295.8 678.1 267.4 681.4 C 263.0 682.9 258.1 681.0 253.8 682.9 C 248.2 683.0 242.4 683.6 236.9 682.0 C 233.2 681.8 229.4 682.6 225.8 681.2 C 213.5 680.1 201.6 676.8 189.9 673.1 C 175.5 667.6 161.3 661.1 148.7 652.3 C 142.9 648.5 137.8 643.8 132.3 639.7 C 127.0 634.7 122.0 629.4 116.7 624.3 C 106.8 612.6 96.8 600.7 90.3 586.7 C 82.9 572.7 78.5 557.3 75.1 541.9 C 74.2 536.7 72.9 531.5 72.8 526.2 C 70.9 521.6 73.1 516.4 71.1 511.8 C 71.0 506.8 70.5 501.7 72.0 496.9 C 71.6 488.5 73.2 480.2 74.9 471.9 C 75.8 466.0 78.1 460.4 79.9 454.8 C 80.1 453.6 80.1 452.5 79.9 451.4 C 75.4 446.4 69.2 443.3 64.7 438.3 C 58.6 431.7 51.6 426.0 46.2 418.8 C 40.8 413.1 36.9 406.1 32.4 399.6 C 29.1 393.2 24.9 387.2 22.6 380.4 C 16.7 367.9 12.9 354.4 10.1 340.9 C 9.2 334.3 7.7 327.9 7.9 321.2 C 6.5 318.0 7.1 314.4 7.0 311.0 C 7.1 307.4 6.8 303.8 7.1 300.2 C 8.9 296.2 7.1 291.7 8.6 287.6 C 12.0 261.2 21.6 235.5 36.3 213.3 C 40.2 208.5 42.8 202.7 47.2 198.1 C 49.6 194.0 53.9 191.5 56.4 187.4 C 57.9 184.9 60.4 183.4 62.7 181.7 C 71.5 172.5 82.3 165.8 93.0 159.0 C 99.0 155.9 104.5 152.1 110.9 149.9 C 128.5 141.9 147.4 135.8 166.8 134.9 C 172.3 133.1 178.2 134.3 183.9 134.0 C 186.4 127.8 188.6 121.5 191.3 115.3 C 199.5 98.1 209.8 81.7 223.2 68.2 C 225.5 64.6 228.7 61.7 231.8 58.8 C 235.0 57.1 237.0 54.0 240.0 52.0 C 264.5 32.1 294.3 18.0 325.8 13.8 M 319.2 46.4 C 262.2 58.8 215.1 109.4 208.6 167.7 C 201.4 167.0 194.3 165.6 187.0 165.7 C 140.6 163.8 94.3 186.5 67.0 224.0 C 51.2 244.8 42.2 270.2 39.1 296.0 C 33.1 354.2 66.8 414.8 120.2 439.1 C 117.9 445.3 114.2 450.9 112.3 457.2 C 102.0 484.3 100.3 514.5 107.5 542.6 C 116.6 579.9 141.6 613.0 174.9 632.1 C 229.9 665.9 307.6 654.5 351.1 607.0 C 356.4 611.3 360.8 616.6 366.4 620.6 C 399.3 646.9 444.3 657.3 485.4 648.2 C 516.0 642.0 543.9 624.8 564.6 601.6 C 602.9 558.0 610.6 489.9 582.1 439.2 C 598.2 431.1 613.0 420.5 625.3 407.3 C 640.8 390.4 652.3 369.7 658.4 347.6 C 667.4 315.3 664.5 279.9 650.5 249.4 C 644.4 236.0 636.6 223.3 626.4 212.5 C 596.3 179.7 550.5 161.3 506.0 166.0 C 501.8 166.3 497.8 167.6 493.7 167.6 C 489.5 136.4 474.8 106.7 452.3 84.7 C 435.9 68.5 415.6 56.3 393.6 49.5 C 369.6 42.0 343.8 41.4 319.2 46.4 Z" />
<path fill="#007a36" stroke="#007a36" stroke-width="0.09375" opacity="1.00" d=" M 319.2 46.4 C 343.8 41.4 369.6 42.0 393.6 49.5 C 415.6 56.3 435.9 68.5 452.3 84.7 C 474.8 106.7 489.5 136.4 493.7 167.6 C 497.8 167.6 501.8 166.3 506.0 166.0 C 550.5 161.3 596.3 179.7 626.4 212.5 C 636.6 223.3 644.4 236.0 650.5 249.4 C 664.5 279.9 667.4 315.3 658.4 347.6 C 652.3 369.7 640.8 390.4 625.3 407.3 C 613.0 420.5 598.2 431.1 582.1 439.2 C 610.6 489.9 602.9 558.0 564.6 601.6 C 543.9 624.8 516.0 642.0 485.4 648.2 C 444.3 657.3 399.3 646.9 366.4 620.6 C 360.8 616.6 356.4 611.3 351.1 607.0 C 307.6 654.5 229.9 665.9 174.9 632.1 C 141.6 613.0 116.6 579.9 107.5 542.6 C 100.3 514.5 102.0 484.3 112.3 457.2 C 114.2 450.9 117.9 445.3 120.2 439.1 C 66.8 414.8 33.1 354.2 39.1 296.0 C 42.2 270.2 51.2 244.8 67.0 224.0 C 94.3 186.5 140.6 163.8 187.0 165.7 C 194.3 165.6 201.4 167.0 208.6 167.7 C 215.1 109.4 262.2 58.8 319.2 46.4 M 279.4 101.4 C 263.4 114.8 251.2 132.7 244.9 152.7 C 238.0 172.6 237.7 194.6 242.9 215.0 C 237.9 212.7 233.5 209.5 228.4 207.6 C 195.4 192.3 155.0 195.1 124.2 214.2 C 94.9 231.9 74.8 263.9 71.5 297.9 C 68.8 322.8 75.0 348.5 88.4 369.6 C 98.5 385.5 112.9 398.6 129.3 407.8 C 143.7 415.3 159.8 420.2 176.1 421.1 C 158.2 436.1 144.7 456.5 139.0 479.2 C 133.0 501.3 134.3 525.2 142.3 546.7 C 154.8 581.0 185.3 608.1 221.0 616.2 C 259.5 626.0 302.6 612.7 329.3 583.3 C 338.4 573.1 346.1 561.5 351.1 548.7 C 351.7 549.6 352.2 550.4 352.7 551.4 C 359.0 566.5 368.8 580.1 381.0 591.0 C 396.9 605.2 416.9 614.7 438.0 618.0 C 477.5 624.6 519.7 607.7 543.8 575.9 C 566.5 546.9 573.4 506.4 561.1 471.7 C 556.4 456.2 547.3 442.4 536.4 430.6 C 533.4 427.2 529.7 424.5 526.7 421.1 C 532.6 420.3 538.5 419.9 544.3 418.4 C 582.2 410.4 614.4 380.8 626.0 343.9 C 632.3 324.8 633.1 304.0 628.6 284.4 C 621.0 249.7 595.5 219.7 562.7 206.3 C 544.7 198.7 524.6 196.3 505.2 198.4 C 489.0 200.8 473.3 206.5 459.3 215.1 C 466.1 189.2 463.2 160.8 451.1 137.0 C 441.6 117.9 426.5 101.6 408.1 90.8 C 389.8 80.0 368.3 74.5 347.1 75.3 C 322.5 76.2 298.2 85.5 279.4 101.4 Z" />
<path fill="#ffffff" stroke="#ffffff" stroke-width="0.09375" opacity="1.00" d=" M 279.4 101.4 C 298.2 85.5 322.5 76.2 347.1 75.3 C 368.3 74.5 389.8 80.0 408.1 90.8 C 426.5 101.6 441.6 117.9 451.1 137.0 C 463.2 160.8 466.1 189.2 459.3 215.1 C 473.3 206.5 489.0 200.8 505.2 198.4 C 524.6 196.3 544.7 198.7 562.7 206.3 C 595.5 219.7 621.0 249.7 628.6 284.4 C 633.1 304.0 632.3 324.8 626.0 343.9 C 614.4 380.8 582.2 410.4 544.3 418.4 C 538.5 419.9 532.6 420.3 526.7 421.1 C 529.7 424.5 533.4 427.2 536.4 430.6 C 547.3 442.4 556.4 456.2 561.1 471.7 C 573.4 506.4 566.5 546.9 543.8 575.9 C 519.7 607.7 477.5 624.6 438.0 618.0 C 416.9 614.7 396.9 605.2 381.0 591.0 C 368.8 580.1 359.0 566.5 352.7 551.4 C 352.2 550.4 351.7 549.6 351.1 548.7 C 346.1 561.5 338.4 573.1 329.3 583.3 C 302.6 612.7 259.5 626.0 221.0 616.2 C 185.3 608.1 154.8 581.0 142.3 546.7 C 134.3 525.2 133.0 501.3 139.0 479.2 C 144.7 456.5 158.2 436.1 176.1 421.1 C 159.8 420.2 143.7 415.3 129.3 407.8 C 112.9 398.6 98.5 385.5 88.4 369.6 C 75.0 348.5 68.8 322.8 71.5 297.9 C 74.8 263.9 94.9 231.9 124.2 214.2 C 155.0 195.1 195.4 192.3 228.4 207.6 C 233.5 209.5 237.9 212.7 242.9 215.0 C 237.7 194.6 238.0 172.6 244.9 152.7 C 251.2 132.7 263.4 114.8 279.4 101.4 M 343.4 260.4 C 299.5 278.6 266.6 320.3 257.9 366.9 C 254.5 386.1 254.7 406.1 259.0 425.2 C 263.0 441.8 270.4 458.2 282.9 470.1 C 290.7 477.9 300.7 483.1 311.0 487.0 C 329.2 493.6 348.9 495.6 368.1 493.9 C 388.1 492.1 408.3 485.8 423.9 472.9 C 435.7 463.3 444.2 449.6 446.8 434.6 C 450.0 417.3 446.5 398.9 436.9 384.2 C 428.9 371.7 416.7 362.0 402.8 357.1 C 385.9 351.0 368.0 347.8 350.0 348.6 C 336.7 349.0 323.6 351.9 310.7 355.1 C 319.2 336.0 333.4 319.0 351.8 308.7 C 369.7 298.5 390.7 295.4 411.1 296.0 C 411.0 280.1 411.4 264.3 410.9 248.4 C 387.9 248.1 364.6 251.3 343.4 260.4 Z" />
<path fill="#000000" stroke="#000000" stroke-width="0.09375" opacity="1.00" d=" M 343.4 260.4 C 364.6 251.3 387.9 248.1 410.9 248.4 C 411.4 264.3 411.0 280.1 411.1 296.0 C 390.7 295.4 369.7 298.5 351.8 308.7 C 333.4 319.0 319.2 336.0 310.7 355.1 C 323.6 351.9 336.7 349.0 350.0 348.6 C 368.0 347.8 385.9 351.0 402.8 357.1 C 416.7 362.0 428.9 371.7 436.9 384.2 C 446.5 398.9 450.0 417.3 446.8 434.6 C 444.2 449.6 435.7 463.3 423.9 472.9 C 408.3 485.8 388.1 492.1 368.1 493.9 C 348.9 495.6 329.2 493.6 311.0 487.0 C 300.7 483.1 290.7 477.9 282.9 470.1 C 270.4 458.2 263.0 441.8 259.0 425.2 C 254.7 406.1 254.5 386.1 257.9 366.9 C 266.6 320.3 299.5 278.6 343.4 260.4 M 346.4 396.4 C 339.0 397.0 331.5 397.6 324.7 400.6 C 319.3 402.8 314.0 405.7 310.7 410.6 C 305.8 417.2 306.2 427.1 311.7 433.3 C 316.3 438.6 323.0 441.4 329.6 443.5 C 343.8 447.5 359.0 447.9 373.6 445.4 C 381.7 443.8 390.0 440.9 395.9 434.9 C 402.1 428.4 402.8 417.6 397.8 410.2 C 393.2 403.9 385.9 400.2 378.4 398.3 C 368.0 395.7 357.1 395.7 346.4 396.4 Z" />
<path fill="#ffffff" stroke="#ffffff" stroke-width="0.09375" opacity="1.00" d=" M 346.4 396.4 C 357.1 395.7 368.0 395.7 378.4 398.3 C 385.9 400.2 393.2 403.9 397.8 410.2 C 402.8 417.6 402.1 428.4 395.9 434.9 C 390.0 440.9 381.7 443.8 373.6 445.4 C 359.0 447.9 343.8 447.5 329.6 443.5 C 323.0 441.4 316.3 438.6 311.7 433.3 C 306.2 427.1 305.8 417.2 310.7 410.6 C 314.0 405.7 319.3 402.8 324.7 400.6 C 331.5 397.6 339.0 397.0 346.4 396.4 Z" />
</svg>
