<?xml version="1.0" encoding="UTF-8" ?>
<!DOCTYPE svg PUBLIC "-//W3C//DTD SVG 1.1//EN" "http://www.w3.org/Graphics/SVG/1.1/DTD/svg11.dtd">
<svg width="700pt" height="700pt" viewBox="0 0 700 700" version="1.1" xmlns="http://www.w3.org/2000/svg">
<path fill="#ffffff" stroke="#ffffff" stroke-width="0.09375" opacity="1.00" d=" M 330.2 15.1 C 334.2 14.6 338.4 15.7 342.2 14.1 C 346.2 14.0 350.4 13.5 354.2 14.8 C 358.1 15.3 362.0 14.7 365.8 15.1 C 368.5 16.3 371.6 15.7 374.4 16.6 C 384.8 18.0 395.0 20.9 405.0 24.0 C 421.2 28.8 436.0 37.4 449.7 47.3 C 453.4 50.2 457.6 52.7 460.8 56.2 C 467.1 60.8 472.1 66.9 477.8 72.2 C 483.4 79.3 489.6 85.9 494.4 93.6 C 501.4 103.8 507.0 114.9 511.6 126.4 C 513.1 129.9 513.2 133.7 515.1 137.0 C 520.7 137.2 526.6 136.3 532.1 137.9 C 538.1 137.5 543.9 139.4 549.9 140.1 C 561.4 142.4 572.7 146.0 583.6 150.4 C 594.3 155.4 604.8 160.9 614.6 167.4 C 618.4 170.3 622.2 173.2 626.2 175.8 C 629.0 178.3 631.5 181.3 634.7 183.3 C 639.0 187.7 643.8 191.6 647.3 196.7 C 652.8 201.7 656.5 208.1 661.2 213.8 C 663.9 218.1 666.2 222.7 669.2 226.8 C 679.3 244.4 685.8 263.8 689.2 283.8 C 690.1 286.3 689.9 289.1 690.2 291.8 C 692.1 296.4 689.9 301.6 691.9 306.2 C 692.1 312.4 692.1 318.6 691.9 324.8 C 690.8 327.4 691.1 330.2 691.0 332.9 C 689.8 337.4 690.0 342.0 688.4 346.4 C 686.1 359.7 680.9 372.3 675.7 384.7 C 667.0 403.0 655.6 420.1 641.8 434.8 C 634.9 441.9 627.3 448.3 619.0 453.4 C 618.6 458.2 620.6 462.7 621.8 467.2 C 624.3 477.3 625.9 487.7 627.0 498.0 C 626.9 506.9 627.2 515.9 626.9 524.8 C 625.5 527.9 626.5 531.3 625.4 534.4 C 622.4 558.9 612.8 582.1 600.2 603.2 C 597.0 607.1 594.5 611.5 591.6 615.6 C 583.8 624.4 577.0 634.3 567.3 641.3 C 564.1 644.8 560.1 647.4 556.3 650.3 C 552.9 653.8 548.3 655.6 544.4 658.4 C 537.2 663.6 528.9 667.0 521.0 671.0 C 506.0 677.1 490.5 682.8 474.2 684.2 C 468.6 686.2 462.4 683.7 456.8 685.9 C 454.7 686.4 452.7 685.8 450.8 685.1 C 445.2 684.4 439.3 685.9 433.8 684.2 C 428.2 683.9 422.8 682.3 417.2 681.8 C 408.1 679.4 398.7 677.7 390.0 674.0 C 377.4 669.6 365.5 663.1 354.4 655.6 C 352.0 653.5 348.9 650.8 345.4 652.3 C 322.1 669.3 294.5 680.1 266.0 684.0 C 263.6 684.0 261.1 683.9 258.8 684.9 C 249.5 685.2 240.2 684.9 231.0 685.0 C 212.1 683.1 193.1 679.1 175.7 671.3 C 170.5 668.7 164.9 667.1 160.2 663.8 C 151.2 658.7 142.3 653.4 134.6 646.4 C 126.8 641.0 120.5 633.9 113.7 627.2 C 110.7 623.6 108.0 619.7 104.8 616.2 C 97.3 607.0 90.6 597.1 85.7 586.3 C 79.8 573.0 75.0 559.2 72.1 544.9 C 71.6 539.6 69.6 534.6 69.8 529.2 C 68.2 525.0 69.5 520.5 68.8 516.2 C 67.4 512.0 68.0 507.5 68.1 503.2 C 69.9 498.8 68.3 493.9 69.4 489.4 C 70.3 486.9 69.7 484.1 70.6 481.6 C 71.5 474.0 73.8 466.6 76.4 459.4 C 77.2 457.5 77.0 455.4 77.0 453.4 C 72.6 451.0 69.1 447.0 64.8 444.2 C 59.3 439.0 54.1 433.5 48.7 428.2 C 44.5 422.5 39.3 417.5 35.6 411.4 C 31.5 405.3 27.2 399.4 24.3 392.7 C 15.7 376.6 9.8 359.2 6.8 341.2 C 5.7 338.2 6.4 334.8 5.1 331.8 C 4.7 328.5 5.5 325.0 4.1 321.8 C 3.9 315.3 3.9 308.7 4.1 302.2 C 5.9 298.2 4.2 293.7 5.6 289.6 C 7.0 280.8 8.7 271.9 11.3 263.4 C 14.6 250.4 20.6 238.5 26.7 226.7 C 32.0 217.5 38.1 208.9 44.3 200.3 C 46.2 198.5 47.8 196.4 49.3 194.3 C 68.2 174.1 91.7 158.4 117.4 148.4 C 131.9 142.3 147.5 139.0 163.0 137.0 C 169.0 137.0 174.9 136.9 180.9 137.0 C 184.2 127.9 187.6 118.7 192.0 110.0 C 198.3 98.9 205.1 88.0 213.2 78.2 C 218.1 71.5 224.5 66.2 230.3 60.3 C 233.5 58.3 236.0 55.3 238.8 52.8 C 246.9 47.5 254.2 41.2 263.0 37.0 C 268.5 33.0 275.0 31.1 281.0 28.0 C 293.4 22.7 306.5 19.0 319.8 16.8 C 323.1 15.5 326.9 16.5 330.2 15.1 M 276.0 65.0 C 246.1 82.8 222.3 111.1 211.4 144.2 C 208.3 152.7 207.0 161.7 205.3 170.6 C 176.0 165.2 145.0 169.2 118.1 182.1 C 94.9 193.1 74.9 210.3 60.5 231.5 C 43.1 257.3 34.2 288.8 35.6 320.0 C 38.1 361.9 59.7 402.4 93.3 427.7 C 100.7 433.4 109.0 437.7 117.3 442.0 C 114.6 448.0 111.3 453.8 109.2 460.2 C 99.0 487.0 97.4 516.9 104.4 544.7 C 113.4 582.4 138.5 615.7 172.2 634.8 C 227.1 668.5 304.7 657.1 348.1 609.7 C 351.2 612.3 354.1 615.2 357.0 617.9 C 376.3 635.1 400.2 646.9 425.5 651.6 C 454.8 657.2 485.7 653.4 512.7 640.8 C 530.5 632.8 546.1 620.6 559.5 606.5 C 599.5 563.1 608.3 493.4 579.0 441.9 C 585.1 438.4 591.5 435.5 597.2 431.2 C 632.3 408.0 655.8 368.5 659.8 326.7 C 663.2 295.9 655.7 264.4 640.2 237.8 C 610.7 187.7 548.2 158.8 490.9 170.6 C 488.9 159.4 486.6 148.3 482.3 137.7 C 471.8 110.2 452.5 86.3 428.0 70.0 C 383.7 39.9 322.0 37.4 276.0 65.0 Z" />
<path fill="#007a36" stroke="#007a36" stroke-width="0.09375" opacity="1.00" d=" M 276.0 65.0 C 322.0 37.4 383.7 39.9 428.0 70.0 C 452.5 86.3 471.8 110.2 482.3 137.7 C 486.6 148.3 488.9 159.4 490.9 170.6 C 548.2 158.8 610.7 187.7 640.2 237.8 C 655.7 264.4 663.2 295.9 659.8 326.7 C 655.8 368.5 632.3 408.0 597.2 431.2 C 591.5 435.5 585.1 438.4 579.0 441.9 C 608.3 493.4 599.5 563.1 559.5 606.5 C 546.1 620.6 530.5 632.8 512.7 640.8 C 485.7 653.4 454.8 657.2 425.5 651.6 C 400.2 646.9 376.3 635.1 357.0 617.9 C 354.1 615.2 351.2 612.3 348.1 609.7 C 304.7 657.1 227.1 668.5 172.2 634.8 C 138.5 615.7 113.4 582.4 104.4 544.7 C 97.4 516.9 99.0 487.0 109.2 460.2 C 111.3 453.8 114.6 448.0 117.3 442.0 C 109.0 437.7 100.7 433.4 93.3 427.7 C 59.7 402.4 38.1 361.9 35.6 320.0 C 34.2 288.8 43.1 257.3 60.5 231.5 C 74.9 210.3 94.9 193.1 118.1 182.1 C 145.0 169.2 176.0 165.2 205.3 170.6 C 207.0 161.7 208.3 152.7 211.4 144.2 C 222.3 111.1 246.1 82.8 276.0 65.0 M 316.6 82.5 C 285.3 91.5 258.6 114.9 245.8 144.9 C 235.7 167.6 233.5 193.8 240.0 217.9 C 235.0 215.3 230.3 212.1 225.0 210.1 C 194.9 196.4 158.7 197.3 129.3 212.3 C 96.0 228.7 72.3 263.0 68.6 299.9 C 65.3 328.2 73.6 357.5 90.9 380.1 C 100.0 392.3 112.1 402.1 125.1 409.8 C 139.6 417.7 155.9 422.6 172.4 423.8 C 171.2 425.7 169.4 427.2 167.7 428.7 C 141.5 452.7 128.3 489.8 133.3 525.0 C 136.2 547.6 146.3 569.3 162.0 586.0 C 188.3 615.2 230.8 628.3 269.0 619.1 C 287.9 615.0 305.3 605.4 319.6 592.7 C 332.0 581.2 341.7 567.0 348.1 551.4 C 349.2 553.2 350.2 555.0 351.0 556.9 C 366.9 593.0 403.5 618.6 442.8 621.6 C 480.1 625.1 518.6 608.1 541.1 578.1 C 563.4 549.3 570.3 509.1 558.2 474.7 C 553.1 458.1 543.2 443.2 531.1 430.9 C 528.8 428.3 525.8 426.4 523.8 423.6 C 529.4 423.0 535.0 422.5 540.4 421.2 C 575.7 414.0 606.4 388.2 619.9 354.9 C 634.2 321.2 630.3 280.5 609.8 250.2 C 597.4 231.5 579.2 216.8 558.5 208.5 C 541.0 201.2 521.7 199.3 502.9 201.0 C 486.5 203.2 470.8 209.1 456.6 217.5 C 457.0 214.5 457.7 211.6 458.3 208.6 C 461.9 187.6 459.4 165.6 451.0 146.0 C 444.2 129.8 433.5 115.3 420.0 104.0 C 392.0 80.1 351.8 71.8 316.6 82.5 Z" />
<path fill="#ffffff" stroke="#ffffff" stroke-width="0.09375" opacity="1.00" d=" M 316.6 82.5 C 351.8 71.8 392.0 80.1 420.0 104.0 C 433.5 115.3 444.2 129.8 451.0 146.0 C 459.4 165.6 461.9 187.6 458.3 208.6 C 457.7 211.6 457.0 214.5 456.6 217.5 C 470.8 209.1 486.5 203.2 502.9 201.0 C 521.7 199.3 541.0 201.2 558.5 208.5 C 579.2 216.8 597.4 231.5 609.8 250.2 C 630.3 280.5 634.2 321.2 619.9 354.9 C 606.4 388.2 575.7 414.0 540.4 421.2 C 535.0 422.5 529.4 423.0 523.8 423.6 C 525.8 426.4 528.8 428.3 531.1 430.9 C 543.2 443.2 553.1 458.1 558.2 474.7 C 570.3 509.1 563.4 549.3 541.1 578.1 C 518.6 608.1 480.1 625.1 442.8 621.6 C 403.5 618.6 366.9 593.0 351.0 556.9 C 350.2 555.0 349.2 553.2 348.1 551.4 C 341.7 567.0 332.0 581.2 319.6 592.7 C 305.3 605.4 287.9 615.0 269.0 619.1 C 230.8 628.3 188.3 615.2 162.0 586.0 C 146.3 569.3 136.2 547.6 133.3 525.0 C 128.3 489.8 141.5 452.7 167.7 428.7 C 169.4 427.2 171.2 425.7 172.4 423.8 C 155.9 422.6 139.6 417.7 125.1 409.8 C 112.1 402.1 100.0 392.3 90.9 380.1 C 73.6 357.5 65.3 328.2 68.6 299.9 C 72.3 263.0 96.0 228.7 129.3 212.3 C 158.7 197.3 194.9 196.4 225.0 210.1 C 230.3 212.1 235.0 215.3 240.0 217.9 C 233.5 193.8 235.7 167.6 245.8 144.9 C 258.6 114.9 285.3 91.5 316.6 82.5 M 240.1 294.3 C 229.5 296.4 219.5 301.0 210.0 305.9 C 202.9 309.7 196.6 314.8 189.9 319.3 C 198.1 328.0 206.4 336.7 214.9 345.3 C 222.4 339.6 230.2 334.1 239.1 331.0 C 248.5 327.5 258.8 326.9 268.7 327.6 C 276.8 328.3 285.2 330.2 291.6 335.3 C 295.5 338.3 297.7 343.6 296.4 348.3 C 294.6 353.7 289.8 357.3 285.0 360.0 C 277.9 364.3 269.5 365.4 262.3 369.2 C 254.0 373.1 245.3 376.4 237.8 381.7 C 218.4 394.2 204.0 413.7 196.7 435.5 C 192.1 447.2 190.9 459.8 190.0 472.2 C 222.6 472.3 255.3 472.2 288.0 472.3 C 303.2 472.1 318.4 472.6 333.6 472.0 C 333.4 460.3 333.4 448.7 333.6 437.0 C 330.1 436.6 326.5 436.8 323.0 436.7 C 293.4 436.8 263.7 436.7 234.1 436.8 C 239.0 427.8 245.6 419.9 253.6 413.6 C 268.9 402.2 288.5 399.6 304.5 389.5 C 315.8 382.9 325.5 372.9 329.4 360.2 C 333.6 346.2 332.5 330.1 324.4 317.6 C 317.6 307.1 306.3 300.2 294.6 296.5 C 277.0 291.0 258.0 290.7 240.1 294.3 M 359.1 297.8 C 359.3 305.1 358.9 312.5 359.3 319.8 C 361.5 324.2 360.6 329.2 360.7 334.0 C 360.9 362.2 359.2 390.3 357.6 418.5 C 364.5 418.5 371.5 418.5 378.5 418.5 C 378.6 413.1 378.3 407.8 378.7 402.4 C 393.1 402.6 407.6 402.4 422.0 402.5 C 421.9 426.7 420.4 450.9 418.8 475.0 C 426.3 475.0 433.8 475.0 441.4 475.0 C 439.8 450.9 439.7 426.7 439.8 402.5 C 455.9 402.5 472.0 402.5 488.1 402.5 C 488.1 407.4 488.2 412.2 488.1 417.0 C 495.6 417.0 503.1 417.0 510.6 417.0 C 506.1 377.4 505.7 337.6 505.9 297.8 C 492.9 298.1 479.9 298.4 466.9 298.7 C 431.0 298.8 395.0 299.0 359.1 297.8 Z" />
<path fill="#000000" stroke="#000000" stroke-width="0.09375" opacity="1.00" d=" M 240.1 294.3 C 258.0 290.7 277.0 291.0 294.6 296.5 C 306.3 300.2 317.6 307.1 324.4 317.6 C 332.5 330.1 333.6 346.2 329.4 360.2 C 325.5 372.9 315.8 382.9 304.5 389.5 C 288.5 399.6 268.9 402.2 253.6 413.6 C 245.6 419.9 239.0 427.8 234.1 436.8 C 263.7 436.7 293.4 436.8 323.0 436.7 C 326.5 436.8 330.1 436.6 333.6 437.0 C 333.4 448.7 333.4 460.3 333.6 472.0 C 318.4 472.6 303.2 472.1 288.0 472.3 C 255.3 472.2 222.6 472.3 190.0 472.2 C 190.9 459.8 192.1 447.2 196.7 435.5 C 204.0 413.7 218.4 394.2 237.8 381.7 C 245.3 376.4 254.0 373.1 262.3 369.2 C 269.5 365.4 277.9 364.3 285.0 360.0 C 289.8 357.3 294.6 353.7 296.4 348.3 C 297.7 343.6 295.5 338.3 291.6 335.3 C 285.2 330.2 276.8 328.3 268.7 327.6 C 258.8 326.9 248.5 327.5 239.1 331.0 C 230.2 334.1 222.4 339.6 214.9 345.3 C 206.4 336.7 198.1 328.0 189.9 319.3 C 196.6 314.8 202.9 309.7 210.0 305.9 C 219.5 301.0 229.5 296.4 240.1 294.3 Z" />
<path fill="#000000" stroke="#000000" stroke-width="0.09375" opacity="1.00" d=" M 359.1 297.8 C 395.0 299.0 431.0 298.8 466.9 298.7 C 479.9 298.4 492.9 298.1 505.9 297.8 C 505.7 337.6 506.1 377.4 510.6 417.0 C 503.1 417.0 495.6 417.0 488.1 417.0 C 488.2 412.2 488.1 407.4 488.1 402.5 C 472.0 402.5 455.9 402.5 439.8 402.5 C 439.7 426.7 439.8 450.9 441.4 475.0 C 433.8 475.0 426.3 475.0 418.8 475.0 C 420.4 450.9 421.9 426.7 422.0 402.5 C 407.6 402.4 393.1 402.6 378.7 402.4 C 378.3 407.8 378.6 413.1 378.5 418.5 C 371.5 418.5 364.5 418.5 357.6 418.5 C 359.2 390.3 360.9 362.2 360.7 334.0 C 360.6 329.2 361.5 324.2 359.3 319.8 C 358.9 312.5 359.3 305.1 359.1 297.8 M 376.9 313.8 C 376.9 322.9 376.9 332.1 376.9 341.2 C 391.9 341.3 407.0 341.3 422.0 341.2 C 422.0 332.1 422.0 322.9 422.0 313.8 C 407.0 313.7 391.9 313.7 376.9 313.8 M 439.8 313.8 C 439.7 322.9 439.7 332.1 439.8 341.2 C 455.9 341.3 472.0 341.3 488.1 341.2 C 488.1 332.1 488.1 322.9 488.1 313.8 C 472.0 313.7 455.9 313.7 439.8 313.8 M 378.5 359.0 C 378.6 367.6 378.3 376.2 378.7 384.9 C 393.1 384.6 407.5 384.8 422.0 384.8 C 422.1 376.2 422.0 367.6 422.0 359.0 C 407.5 359.0 393.0 359.0 378.5 359.0 M 439.8 359.0 C 439.8 367.6 439.6 376.2 439.9 384.8 C 455.9 384.7 472.0 384.7 488.0 384.8 C 488.2 376.2 488.1 367.6 488.1 359.0 C 472.0 359.0 455.9 359.0 439.8 359.0 Z" />
<path fill="#ffffff" stroke="#ffffff" stroke-width="0.09375" opacity="1.00" d=" M 376.9 313.8 C 391.9 313.7 407.0 313.7 422.0 313.8 C 422.0 322.9 422.0 332.1 422.0 341.2 C 407.0 341.3 391.9 341.3 376.9 341.2 C 376.9 332.1 376.9 322.9 376.9 313.8 Z" />
<path fill="#ffffff" stroke="#ffffff" stroke-width="0.09375" opacity="1.00" d=" M 439.8 313.8 C 455.9 313.7 472.0 313.7 488.1 313.8 C 488.1 322.9 488.1 332.1 488.1 341.2 C 472.0 341.3 455.9 341.3 439.8 341.2 C 439.7 332.1 439.7 322.9 439.8 313.8 Z" />
<path fill="#ffffff" stroke="#ffffff" stroke-width="0.09375" opacity="1.00" d=" M 378.5 359.0 C 393.0 359.0 407.5 359.0 422.0 359.0 C 422.0 367.6 422.1 376.2 422.0 384.8 C 407.5 384.8 393.1 384.6 378.7 384.9 C 378.3 376.2 378.6 367.6 378.5 359.0 Z" />
<path fill="#ffffff" stroke="#ffffff" stroke-width="0.09375" opacity="1.00" d=" M 439.8 359.0 C 455.9 359.0 472.0 359.0 488.1 359.0 C 488.1 367.6 488.2 376.2 488.0 384.8 C 472.0 384.7 455.9 384.7 439.9 384.8 C 439.6 376.2 439.8 367.6 439.8 359.0 Z" />
</svg>
