<?xml version="1.0" encoding="UTF-8" ?>
<!DOCTYPE svg PUBLIC "-//W3C//DTD SVG 1.1//EN" "http://www.w3.org/Graphics/SVG/1.1/DTD/svg11.dtd">
<svg width="700pt" height="700pt" viewBox="0 0 700 700" version="1.1" xmlns="http://www.w3.org/2000/svg">
<path fill="#ffffff" stroke="#ffffff" stroke-width="0.09375" opacity="1.00" d=" M 331.8 13.9 C 333.2 13.5 334.5 12.9 336.0 13.0 C 344.3 13.0 352.7 13.0 361.0 13.0 C 362.5 12.9 363.8 13.5 365.2 13.9 C 373.1 13.8 380.8 16.0 388.6 17.4 C 404.6 21.6 420.6 26.6 434.8 35.2 C 443.5 40.2 451.7 46.2 459.4 52.6 C 463.3 55.0 465.8 58.9 469.4 61.6 C 474.3 64.4 476.3 69.9 480.8 73.2 C 493.8 88.3 505.2 105.1 512.1 123.9 C 513.6 127.6 514.3 131.5 516.1 135.0 C 519.8 135.1 523.7 134.4 527.2 135.9 C 530.9 136.4 534.8 135.3 538.4 136.6 C 553.9 138.3 569.1 142.6 583.6 148.4 C 588.2 150.4 592.5 153.1 597.3 154.7 C 603.0 158.0 608.5 161.5 614.2 164.8 C 619.1 168.1 623.7 172.0 628.6 175.4 C 632.2 178.1 634.7 182.1 638.6 184.4 C 640.8 185.8 642.4 188.0 643.8 190.2 C 646.4 193.2 649.6 195.8 652.2 198.8 C 655.7 203.9 659.7 208.7 663.2 213.8 C 665.9 218.4 668.6 223.0 671.6 227.4 C 673.4 232.6 676.3 237.4 678.7 242.3 C 683.3 252.5 686.1 263.4 688.8 274.2 C 689.6 279.4 691.3 284.5 691.1 289.8 C 692.8 293.9 691.5 298.5 692.1 302.8 C 693.6 306.4 692.8 310.3 693.0 314.0 C 692.8 317.7 693.6 321.6 692.1 325.2 C 692.2 335.1 689.6 344.7 687.2 354.2 C 683.1 369.8 676.2 384.4 668.6 398.6 C 664.8 403.9 662.0 409.8 657.8 414.9 C 654.6 419.3 651.2 423.6 647.8 427.8 C 641.7 433.4 636.5 439.9 629.8 444.8 C 626.7 447.5 623.2 449.7 620.0 452.3 C 619.3 456.6 621.6 460.4 622.4 464.6 C 624.6 473.2 626.8 481.9 627.1 490.8 C 627.5 492.2 628.1 493.5 628.0 495.0 C 628.0 504.3 628.1 513.6 628.0 522.9 C 627.5 525.3 626.7 527.5 627.0 530.0 C 624.9 544.8 621.1 559.5 615.4 573.4 C 614.1 577.5 611.6 581.2 610.3 585.3 C 603.3 598.4 595.4 611.3 585.4 622.4 C 580.9 628.5 574.9 633.2 569.8 638.8 C 564.4 643.1 559.1 647.4 553.6 651.6 C 546.9 655.1 541.3 660.3 534.3 663.3 C 528.1 666.6 521.7 669.5 515.1 672.1 C 508.8 673.9 502.9 677.1 496.4 678.4 C 489.5 681.0 482.1 681.3 474.9 683.0 C 471.9 683.1 468.7 682.6 465.8 683.9 C 458.9 684.1 452.1 684.1 445.2 683.9 C 440.9 682.0 436.1 684.0 431.8 682.2 C 427.7 682.1 423.8 681.0 419.8 680.2 C 413.4 679.7 407.4 677.4 401.2 675.8 C 383.2 670.5 366.1 662.2 351.2 650.7 C 349.2 648.9 346.6 650.5 344.8 651.8 C 321.5 668.4 293.8 679.1 265.4 682.4 C 261.0 684.0 256.1 681.9 251.8 683.9 C 246.2 683.9 240.4 684.7 234.9 683.0 C 231.8 682.8 228.5 683.4 225.4 682.6 C 222.9 681.6 220.1 682.4 217.6 681.4 C 207.7 680.1 198.1 677.3 188.6 674.4 C 170.2 667.5 152.2 658.6 137.0 646.0 C 130.0 641.0 124.3 634.8 118.2 628.7 C 113.2 624.1 109.2 618.5 104.8 613.2 C 86.4 590.9 76.1 562.8 71.6 534.4 C 70.5 531.6 71.6 528.4 70.4 525.6 C 69.3 521.4 70.9 516.9 69.1 512.8 C 69.1 508.2 68.3 503.3 69.9 498.8 C 70.5 494.8 69.3 490.5 70.6 486.6 C 71.8 477.0 73.7 467.3 77.1 458.2 C 78.0 456.3 78.1 454.3 78.0 452.4 C 74.2 448.6 69.8 445.6 65.8 442.3 C 60.2 436.8 54.8 431.2 49.2 425.8 C 27.8 402.2 13.7 372.3 8.0 341.0 C 7.1 337.3 7.3 333.4 6.1 329.8 C 5.7 326.5 6.6 323.0 5.1 319.8 C 4.9 313.6 4.9 307.4 5.1 301.2 C 7.0 297.2 5.1 292.7 6.6 288.6 C 10.0 262.2 19.6 236.5 34.3 214.3 C 38.2 209.5 40.8 203.7 45.2 199.1 C 47.7 194.8 52.3 192.2 54.8 187.8 C 56.7 185.0 60.0 183.8 62.3 181.3 C 67.8 175.3 74.7 171.0 81.2 166.2 C 90.7 160.5 99.9 154.2 110.3 150.3 C 127.7 142.2 146.6 136.9 165.6 135.6 C 170.9 134.3 176.5 135.3 181.9 135.0 C 184.6 128.6 186.7 122.0 189.7 115.7 C 197.7 98.7 208.0 82.5 221.2 69.2 C 223.5 65.6 226.7 62.7 229.8 59.8 C 233.2 57.9 235.3 54.6 238.6 52.6 C 259.4 35.6 284.0 23.3 310.2 17.2 C 317.4 16.0 324.5 14.0 331.8 13.9 M 327.6 45.7 C 299.1 49.3 272.3 62.9 251.5 82.5 C 227.2 104.9 210.2 135.7 206.6 168.7 C 190.1 166.3 173.1 165.6 156.6 168.7 C 120.3 174.6 86.7 195.3 65.0 225.0 C 49.2 245.8 40.2 271.2 37.1 297.0 C 31.1 355.2 64.8 415.8 118.2 440.1 C 115.9 446.3 112.2 451.9 110.3 458.2 C 103.0 477.5 100.0 498.4 101.5 519.1 C 103.5 546.6 113.6 573.6 130.4 595.6 C 142.2 611.1 157.2 624.3 174.2 633.8 C 229.1 666.8 305.9 655.1 349.1 608.0 C 354.1 612.0 358.1 617.0 363.3 620.7 C 375.9 630.9 390.4 638.9 405.7 644.3 C 435.8 654.9 469.6 655.2 499.8 644.7 C 523.6 636.8 544.8 622.1 561.7 603.7 C 600.7 560.1 608.9 491.3 580.1 440.2 C 598.3 431.1 614.9 418.6 627.9 402.9 C 639.9 388.5 649.3 371.7 654.8 353.7 C 666.4 318.0 662.9 277.7 645.5 244.4 C 638.1 228.8 627.2 215.1 614.4 203.6 C 584.6 177.2 543.8 162.8 504.0 167.0 C 499.9 167.3 495.8 168.6 491.7 168.6 C 491.2 165.7 490.6 162.8 490.2 159.9 C 482.5 119.4 456.1 83.0 420.1 62.9 C 392.4 46.9 359.2 41.0 327.6 45.7 Z" />
<path fill="#007a36" stroke="#007a36" stroke-width="0.09375" opacity="1.00" d=" M 327.6 45.7 C 359.2 41.0 392.4 46.9 420.1 62.9 C 456.1 83.0 482.5 119.4 490.2 159.9 C 490.6 162.8 491.2 165.7 491.7 168.6 C 495.8 168.6 499.9 167.3 504.0 167.0 C 543.8 162.8 584.6 177.2 614.4 203.6 C 627.2 215.1 638.1 228.8 645.5 244.4 C 662.9 277.7 666.4 318.0 654.8 353.7 C 649.3 371.7 639.9 388.5 627.9 402.9 C 614.9 418.6 598.3 431.1 580.1 440.2 C 608.9 491.3 600.7 560.1 561.7 603.7 C 544.8 622.1 523.6 636.8 499.8 644.7 C 469.6 655.2 435.8 654.9 405.7 644.3 C 390.4 638.9 375.9 630.9 363.3 620.7 C 358.1 617.0 354.1 612.0 349.1 608.0 C 305.9 655.1 229.1 666.8 174.2 633.8 C 157.2 624.3 142.2 611.1 130.4 595.6 C 113.6 573.6 103.5 546.6 101.5 519.1 C 100.0 498.4 103.0 477.5 110.3 458.2 C 112.2 451.9 115.9 446.3 118.2 440.1 C 64.8 415.8 31.1 355.2 37.1 297.0 C 40.2 271.2 49.2 245.8 65.0 225.0 C 86.7 195.3 120.3 174.6 156.6 168.7 C 173.1 165.6 190.1 166.3 206.6 168.7 C 210.2 135.7 227.2 104.9 251.5 82.5 C 272.3 62.9 299.1 49.3 327.6 45.7 M 258.6 122.6 C 248.9 135.8 242.5 151.3 239.2 167.3 C 236.3 183.4 236.7 200.2 240.9 216.0 C 235.7 213.6 231.0 210.3 225.7 208.3 C 190.0 191.9 145.8 197.0 114.4 220.4 C 95.3 234.3 81.2 254.5 74.0 276.9 C 64.4 307.0 68.5 341.1 84.9 368.1 C 95.0 385.2 110.0 399.1 127.3 408.8 C 141.7 416.3 157.7 421.3 174.1 422.1 C 167.1 428.4 160.2 435.0 154.8 442.8 C 133.1 471.9 127.3 512.0 139.8 546.2 C 152.0 581.2 182.8 609.0 219.0 617.2 C 257.5 627.0 300.6 613.7 327.3 584.3 C 336.5 574.1 344.1 562.5 349.1 549.7 C 350.9 552.2 351.8 555.1 353.1 557.9 C 361.1 574.2 373.1 588.5 387.9 599.2 C 406.1 612.3 428.4 620.0 451.0 620.3 C 486.4 621.3 521.7 604.1 542.7 575.7 C 564.7 546.8 571.2 506.9 559.1 472.7 C 554.1 456.3 544.3 441.8 532.4 429.6 C 530.1 426.9 527.0 424.9 524.8 422.1 C 530.3 421.3 536.0 421.0 541.4 419.6 C 579.7 411.8 612.3 382.1 624.0 344.9 C 630.2 326.1 631.1 305.6 626.8 286.3 C 619.5 251.2 593.8 220.8 560.7 207.3 C 542.7 199.7 522.6 197.3 503.2 199.4 C 487.0 201.8 471.3 207.6 457.3 216.0 C 462.6 195.8 462.0 174.1 455.7 154.2 C 448.5 131.5 434.0 111.2 414.6 97.4 C 394.9 83.1 370.3 75.6 346.0 76.3 C 311.7 77.1 278.5 94.7 258.6 122.6 Z" />
<path fill="#ffffff" stroke="#ffffff" stroke-width="0.09375" opacity="1.00" d=" M 258.6 122.6 C 278.5 94.7 311.7 77.1 346.0 76.3 C 370.3 75.6 394.9 83.1 414.6 97.4 C 434.0 111.2 448.5 131.5 455.7 154.2 C 462.0 174.1 462.6 195.8 457.3 216.0 C 471.3 207.6 487.0 201.8 503.2 199.4 C 522.6 197.3 542.7 199.7 560.7 207.3 C 593.8 220.8 619.5 251.2 626.8 286.3 C 631.1 305.6 630.2 326.1 624.0 344.9 C 612.3 382.1 579.7 411.8 541.4 419.6 C 536.0 421.0 530.3 421.3 524.8 422.1 C 527.0 424.9 530.1 426.9 532.4 429.6 C 544.3 441.8 554.1 456.3 559.1 472.7 C 571.2 506.9 564.7 546.8 542.7 575.7 C 521.7 604.1 486.4 621.3 451.0 620.3 C 428.4 620.0 406.1 612.3 387.9 599.2 C 373.1 588.5 361.1 574.2 353.1 557.9 C 351.8 555.1 350.9 552.2 349.1 549.7 C 344.1 562.5 336.5 574.1 327.3 584.3 C 300.6 613.7 257.5 627.0 219.0 617.2 C 182.8 609.0 152.0 581.2 139.8 546.2 C 127.3 512.0 133.1 471.9 154.8 442.8 C 160.2 435.0 167.1 428.4 174.1 422.1 C 157.7 421.3 141.7 416.3 127.3 408.8 C 110.0 399.1 95.0 385.2 84.9 368.1 C 68.5 341.1 64.4 307.0 74.0 276.9 C 81.2 254.5 95.3 234.3 114.4 220.4 C 145.8 197.0 190.0 191.9 225.7 208.3 C 231.0 210.3 235.7 213.6 240.9 216.0 C 236.7 200.2 236.3 183.4 239.2 167.3 C 242.5 151.3 248.9 135.8 258.6 122.6 M 279.2 270.2 C 268.9 279.7 262.1 292.8 260.7 306.8 C 258.6 324.9 264.6 344.1 277.4 357.3 C 274.7 360.6 271.3 363.3 268.8 366.8 C 258.5 379.1 253.1 395.1 252.8 411.0 C 252.1 430.7 260.1 450.2 273.3 464.7 C 284.2 477.1 299.8 484.2 315.6 488.3 C 333.6 492.7 352.6 493.7 371.0 490.9 C 389.5 487.7 408.0 480.8 421.8 467.8 C 434.7 456.2 442.5 439.5 444.6 422.5 C 446.5 405.2 443.6 386.8 433.8 372.2 C 430.4 366.6 425.6 362.1 421.1 357.3 C 426.6 351.0 431.4 344.1 434.2 336.3 C 438.9 322.6 438.9 307.3 434.6 293.5 C 429.9 278.6 418.6 266.4 405.0 259.0 C 385.0 248.1 361.5 245.4 339.0 246.9 C 317.5 248.6 295.3 255.1 279.2 270.2 Z" />
<path fill="#000000" stroke="#000000" stroke-width="0.09375" opacity="1.00" d=" M 279.2 270.2 C 295.3 255.1 317.5 248.6 339.0 246.9 C 361.5 245.4 385.0 248.1 405.0 259.0 C 418.6 266.4 429.9 278.6 434.6 293.5 C 438.9 307.3 438.9 322.6 434.2 336.3 C 431.4 344.1 426.6 351.0 421.1 357.3 C 425.6 362.1 430.4 366.6 433.8 372.2 C 443.6 386.8 446.5 405.2 444.6 422.5 C 442.5 439.5 434.7 456.2 421.8 467.8 C 408.0 480.8 389.5 487.7 371.0 490.9 C 352.6 493.7 333.6 492.7 315.6 488.3 C 299.8 484.2 284.2 477.1 273.3 464.7 C 260.1 450.2 252.1 430.7 252.8 411.0 C 253.1 395.1 258.5 379.1 268.8 366.8 C 271.3 363.3 274.7 360.6 277.4 357.3 C 264.6 344.1 258.6 324.9 260.7 306.8 C 262.1 292.8 268.9 279.7 279.2 270.2 M 338.5 294.6 C 330.7 295.4 322.8 297.0 316.0 301.0 C 311.9 303.3 308.2 307.1 307.9 312.0 C 307.1 318.4 311.7 324.1 317.2 326.8 C 328.8 332.8 342.2 333.5 354.9 333.2 C 365.3 332.7 376.3 331.2 384.9 324.9 C 390.2 321.0 392.6 313.4 389.5 307.4 C 386.4 301.7 380.0 298.9 374.1 296.9 C 362.6 293.7 350.3 293.5 338.5 294.6 M 337.4 382.3 C 327.3 383.6 316.9 386.3 308.9 393.0 C 300.6 399.9 298.4 412.2 301.7 422.2 C 303.7 428.7 308.8 434.0 314.7 437.3 C 327.5 444.4 342.7 445.4 357.1 444.7 C 368.2 444.1 379.8 441.7 388.7 434.8 C 398.8 426.7 400.9 411.6 395.7 400.3 C 392.3 392.8 384.9 388.2 377.4 385.5 C 364.6 381.2 350.7 381.1 337.4 382.3 Z" />
<path fill="#ffffff" stroke="#ffffff" stroke-width="0.09375" opacity="1.00" d=" M 338.5 294.6 C 350.3 293.5 362.6 293.7 374.1 296.9 C 380.0 298.9 386.4 301.7 389.5 307.4 C 392.6 313.4 390.2 321.0 384.9 324.9 C 376.3 331.2 365.3 332.7 354.9 333.2 C 342.2 333.5 328.8 332.8 317.2 326.8 C 311.7 324.1 307.1 318.4 307.9 312.0 C 308.2 307.1 311.9 303.3 316.0 301.0 C 322.8 297.0 330.7 295.4 338.5 294.6 Z" />
<path fill="#ffffff" stroke="#ffffff" stroke-width="0.09375" opacity="1.00" d=" M 337.4 382.3 C 350.7 381.1 364.6 381.2 377.4 385.5 C 384.9 388.2 392.3 392.8 395.7 400.3 C 400.9 411.6 398.8 426.7 388.7 434.8 C 379.8 441.7 368.2 444.1 357.1 444.7 C 342.7 445.4 327.5 444.4 314.7 437.3 C 308.8 434.0 303.7 428.7 301.7 422.2 C 298.4 412.2 300.6 399.9 308.9 393.0 C 316.9 386.3 327.3 383.6 337.4 382.3 Z" />
</svg>
