<?xml version="1.0" encoding="UTF-8" ?>
<!DOCTYPE svg PUBLIC "-//W3C//DTD SVG 1.1//EN" "http://www.w3.org/Graphics/SVG/1.1/DTD/svg11.dtd">
<svg width="700pt" height="700pt" viewBox="0 0 700 700" version="1.1" xmlns="http://www.w3.org/2000/svg">
<path fill="#ffffff" stroke="#ffffff" stroke-width="0.09375" opacity="1.00" d=" M 320.6 17.6 C 326.0 16.3 331.6 16.3 337.1 15.0 C 346.3 15.0 355.6 14.8 364.8 15.1 C 367.9 16.6 371.4 15.5 374.6 16.4 C 398.8 20.4 423.0 27.6 443.6 41.4 C 449.8 45.4 455.7 49.9 461.4 54.6 C 465.7 57.2 468.3 61.8 472.6 64.4 C 474.8 65.8 476.4 68.0 477.8 70.2 C 488.5 80.7 497.3 93.1 505.0 106.0 C 508.4 112.7 512.0 119.4 514.4 126.6 C 515.6 130.1 516.5 133.7 518.1 137.1 C 521.8 137.1 525.7 136.5 529.2 137.9 C 532.9 138.4 536.8 137.3 540.4 138.6 C 555.9 140.3 571.1 144.6 585.6 150.4 C 590.2 152.4 594.5 155.1 599.3 156.7 C 605.0 160.0 610.5 163.5 616.2 166.8 C 621.1 170.1 625.7 174.0 630.6 177.4 C 634.2 180.1 636.7 184.1 640.6 186.4 C 642.8 187.8 644.4 190.0 645.8 192.2 C 648.4 195.2 651.6 197.8 654.2 200.8 C 657.8 205.9 661.7 210.7 665.2 215.8 C 667.9 220.4 670.6 225.0 673.6 229.4 C 675.6 235.1 678.8 240.2 681.3 245.7 C 686.9 259.0 690.3 273.0 692.9 287.1 C 693.1 289.2 692.8 291.4 693.6 293.4 C 694.7 297.9 693.0 302.8 694.9 307.2 C 695.1 313.0 695.1 318.9 694.9 324.8 C 693.7 327.4 694.0 330.2 694.0 333.0 C 691.2 353.0 685.1 372.7 675.7 390.7 C 674.0 394.0 672.4 397.4 670.6 400.6 C 666.8 405.9 664.0 411.8 659.8 416.9 C 657.0 421.0 653.7 424.7 650.7 428.7 C 646.0 433.6 641.1 438.4 636.2 443.3 C 631.5 447.0 626.8 450.7 622.0 454.2 C 622.0 455.8 621.9 457.3 622.1 458.8 C 624.9 467.5 627.1 476.5 628.4 485.6 C 629.5 488.7 628.5 492.1 629.9 495.2 C 630.1 505.4 630.1 515.6 629.9 525.8 C 628.5 528.9 629.5 532.3 628.4 535.4 C 622.8 573.8 603.9 610.0 575.8 636.8 C 569.7 643.2 562.4 648.1 555.6 653.6 C 548.9 657.1 543.3 662.3 536.3 665.3 C 530.1 668.6 523.7 671.5 517.1 674.1 C 510.8 675.9 504.9 679.1 498.4 680.4 C 492.3 682.7 485.8 683.3 479.4 684.4 C 475.7 685.7 471.5 684.2 467.8 685.9 C 463.5 686.2 459.3 685.9 455.0 686.0 C 451.6 685.9 448.0 686.5 444.8 685.1 C 441.1 684.7 437.3 685.6 433.8 684.2 C 429.7 684.1 425.8 683.0 421.8 682.2 C 415.1 681.6 408.8 679.2 402.4 677.6 C 386.4 672.7 370.9 665.5 357.3 655.7 C 355.5 654.4 353.8 652.9 351.8 651.9 C 349.4 651.5 347.5 653.4 345.6 654.6 C 322.6 670.8 295.3 681.1 267.4 684.4 C 263.0 685.9 258.1 684.0 253.8 685.9 C 248.2 686.0 242.4 686.6 236.9 685.0 C 233.8 684.8 230.5 685.4 227.4 684.6 C 224.9 683.6 222.1 684.3 219.6 683.4 C 209.5 682.1 199.6 679.2 189.9 676.1 C 171.7 669.2 154.0 660.4 139.0 648.0 C 135.3 645.0 131.4 642.3 128.2 638.8 C 123.1 633.2 117.1 628.5 112.7 622.3 C 97.9 606.1 87.1 586.5 80.4 565.6 C 77.1 553.7 73.5 541.6 72.8 529.2 C 70.9 524.6 73.1 519.4 71.1 514.8 C 70.9 510.9 70.9 507.0 71.1 503.2 C 72.6 499.6 71.8 495.7 72.0 492.0 C 73.5 482.3 74.7 472.4 78.1 463.1 C 79.0 460.3 80.6 457.4 79.9 454.4 C 75.4 449.4 69.2 446.3 64.7 441.3 C 58.6 434.7 51.6 429.0 46.2 421.8 C 40.8 416.1 36.9 409.1 32.4 402.6 C 29.2 396.5 25.2 390.7 22.9 384.1 C 15.6 368.1 10.6 350.9 8.6 333.4 C 7.5 330.5 8.3 327.2 7.9 324.2 C 6.5 321.0 7.1 317.4 7.0 314.0 C 7.1 310.4 6.8 306.8 7.1 303.2 C 8.9 299.2 7.2 294.7 8.6 290.6 C 11.3 268.5 18.7 247.0 29.4 227.4 C 32.3 223.2 34.3 218.5 37.6 214.6 C 40.8 210.1 43.4 205.2 47.2 201.1 C 49.6 197.0 53.9 194.5 56.4 190.4 C 57.9 187.9 60.4 186.4 62.7 184.7 C 71.5 175.5 82.3 168.8 93.0 162.0 C 99.0 158.9 104.5 155.1 110.9 152.9 C 128.5 144.9 147.4 138.8 166.8 137.9 C 172.3 136.1 178.2 137.3 183.9 137.0 C 192.4 112.8 205.1 89.6 223.2 71.2 C 225.5 67.6 228.7 64.7 231.8 61.8 C 235.0 60.1 237.0 57.0 240.0 55.0 C 263.2 36.2 291.0 22.6 320.6 17.6 M 317.6 49.8 C 296.6 54.6 276.9 64.7 260.4 78.4 C 232.5 101.2 212.5 134.6 208.6 170.7 C 197.8 169.2 187.0 168.1 176.1 168.7 C 150.3 169.9 124.9 178.2 103.4 192.4 C 80.4 207.6 61.7 229.5 50.8 254.8 C 38.4 283.7 34.6 316.6 42.8 347.1 C 53.3 387.9 81.5 424.6 120.2 442.1 C 118.8 445.9 116.9 449.4 115.1 453.1 C 104.1 478.3 100.4 506.7 105.1 533.9 C 108.7 556.7 118.1 578.6 132.0 597.0 C 147.0 617.3 167.8 633.0 190.8 643.4 C 232.8 661.6 283.4 657.1 322.5 633.5 C 333.1 627.2 342.4 619.0 351.1 610.2 C 354.3 612.0 356.5 615.3 359.4 617.7 C 368.3 625.7 378.3 632.6 388.9 638.1 C 418.8 653.8 454.2 658.4 487.1 650.9 C 517.1 644.4 544.2 627.4 564.6 604.6 C 602.9 561.0 610.7 492.9 582.1 442.2 C 592.4 436.8 602.5 430.9 611.3 423.3 C 627.0 410.7 639.5 394.4 648.5 376.5 C 661.9 349.7 666.5 318.7 661.7 289.1 C 656.6 259.7 643.1 231.4 621.5 210.4 C 591.7 181.1 548.8 164.8 507.0 168.9 C 502.5 169.2 498.2 170.5 493.7 170.7 C 492.0 158.7 489.0 146.9 484.3 135.7 C 469.2 97.7 436.8 67.2 398.1 54.0 C 372.4 44.9 344.1 44.0 317.6 49.8 Z" />
<path fill="#007a36" stroke="#007a36" stroke-width="0.09375" opacity="1.00" d=" M 317.6 49.8 C 344.1 44.0 372.4 44.9 398.1 54.0 C 436.8 67.2 469.2 97.7 484.3 135.7 C 489.0 146.9 492.0 158.7 493.7 170.7 C 498.2 170.5 502.5 169.2 507.0 168.9 C 548.8 164.8 591.7 181.1 621.5 210.4 C 643.1 231.4 656.6 259.7 661.7 289.1 C 666.5 318.7 661.9 349.7 648.5 376.5 C 639.5 394.4 627.0 410.7 611.3 423.3 C 602.5 430.9 592.4 436.8 582.1 442.2 C 610.7 492.9 602.9 561.0 564.6 604.6 C 544.2 627.4 517.1 644.4 487.1 650.9 C 454.2 658.4 418.8 653.8 388.9 638.1 C 378.3 632.6 368.3 625.7 359.4 617.7 C 356.5 615.3 354.3 612.0 351.1 610.2 C 342.4 619.0 333.1 627.2 322.5 633.5 C 283.4 657.1 232.8 661.6 190.8 643.4 C 167.8 633.0 147.0 617.3 132.0 597.0 C 118.1 578.6 108.7 556.7 105.1 533.9 C 100.4 506.7 104.1 478.3 115.1 453.1 C 116.9 449.4 118.8 445.9 120.2 442.1 C 81.5 424.6 53.3 387.9 42.8 347.1 C 34.6 316.6 38.4 283.7 50.8 254.8 C 61.7 229.5 80.4 207.6 103.4 192.4 C 124.9 178.2 150.3 169.9 176.1 168.7 C 187.0 168.1 197.8 169.2 208.6 170.7 C 212.5 134.6 232.5 101.2 260.4 78.4 C 276.9 64.7 296.6 54.6 317.6 49.8 M 343.8 78.5 C 320.3 80.0 297.4 89.2 279.4 104.4 C 263.6 117.6 251.5 135.3 245.1 154.9 C 238.1 175.1 237.6 197.4 242.9 218.0 C 238.0 215.7 233.5 212.5 228.4 210.6 C 195.2 195.2 154.5 198.1 123.6 217.6 C 90.5 237.7 69.7 276.3 70.9 315.0 C 71.4 337.2 78.7 359.3 91.6 377.4 C 102.2 392.1 116.4 404.3 132.6 412.5 C 146.2 419.0 161.0 423.4 176.1 424.1 C 172.5 427.6 168.6 430.7 165.3 434.4 C 150.7 450.0 140.7 469.9 137.0 491.0 C 133.1 512.8 135.9 535.8 144.9 556.0 C 159.7 590.0 192.4 615.3 229.0 620.9 C 265.5 627.2 304.4 613.6 329.3 586.3 C 338.5 576.1 346.1 564.4 351.1 551.6 C 351.9 553.0 352.6 554.3 353.3 555.7 C 364.5 581.9 386.5 603.3 413.0 614.0 C 431.8 621.8 452.9 624.1 473.0 621.0 C 491.0 618.0 508.2 610.7 522.7 599.7 C 539.4 587.2 552.4 570.0 559.7 550.5 C 573.2 516.1 567.9 474.9 545.9 445.1 C 540.5 437.2 533.6 430.6 526.7 424.1 C 532.3 423.3 537.9 422.9 543.4 421.6 C 578.8 414.3 609.5 388.5 623.0 355.0 C 637.8 320.0 632.8 277.4 610.2 246.8 C 597.6 229.4 579.9 215.8 559.9 208.1 C 542.6 201.4 523.6 199.4 505.2 201.4 C 489.0 203.8 473.3 209.5 459.3 218.1 C 468.2 184.6 460.3 147.3 438.6 120.4 C 416.4 92.0 379.7 75.9 343.8 78.5 Z" />
<path fill="#ffffff" stroke="#ffffff" stroke-width="0.09375" opacity="1.00" d=" M 343.8 78.5 C 379.7 75.9 416.4 92.0 438.6 120.4 C 460.3 147.3 468.2 184.6 459.3 218.1 C 473.3 209.5 489.0 203.8 505.2 201.4 C 523.6 199.4 542.6 201.4 559.9 208.1 C 579.9 215.8 597.6 229.4 610.2 246.8 C 632.8 277.4 637.8 320.0 623.0 355.0 C 609.5 388.5 578.8 414.3 543.4 421.6 C 537.9 422.9 532.3 423.3 526.7 424.1 C 533.6 430.6 540.5 437.2 545.9 445.1 C 567.9 474.9 573.2 516.1 559.7 550.5 C 552.4 570.0 539.4 587.2 522.7 599.7 C 508.2 610.7 491.0 618.0 473.0 621.0 C 452.9 624.1 431.8 621.8 413.0 614.0 C 386.5 603.3 364.5 581.9 353.3 555.7 C 352.6 554.3 351.9 553.0 351.1 551.6 C 346.1 564.4 338.5 576.1 329.3 586.3 C 304.4 613.6 265.5 627.2 229.0 620.9 C 192.4 615.3 159.7 590.0 144.9 556.0 C 135.9 535.8 133.1 512.8 137.0 491.0 C 140.7 469.9 150.7 450.0 165.3 434.4 C 168.6 430.7 172.5 427.6 176.1 424.1 C 161.0 423.4 146.2 419.0 132.6 412.5 C 116.4 404.3 102.2 392.1 91.6 377.4 C 78.7 359.3 71.4 337.2 70.9 315.0 C 69.7 276.3 90.5 237.7 123.6 217.6 C 154.5 198.1 195.2 195.2 228.4 210.6 C 233.5 212.5 238.0 215.7 242.9 218.0 C 237.6 197.4 238.1 175.1 245.1 154.9 C 251.5 135.3 263.6 117.6 279.4 104.4 C 297.4 89.2 320.3 80.0 343.8 78.5 M 406.5 262.8 C 392.0 264.5 377.8 269.4 365.7 277.7 C 350.4 287.8 338.9 303.0 331.7 319.7 C 325.1 334.7 321.6 351.0 320.2 367.3 C 318.2 391.5 320.3 416.1 327.6 439.2 C 333.9 458.2 344.5 476.2 360.4 488.7 C 374.9 500.6 393.6 507.0 412.3 507.7 C 424.0 508.4 435.9 507.4 447.1 504.1 C 465.7 498.9 482.3 487.3 493.8 471.8 C 504.5 457.7 510.9 440.8 514.8 423.6 C 519.2 402.4 519.8 380.4 516.9 359.0 C 514.2 340.6 508.2 322.5 498.3 306.7 C 488.2 290.4 473.3 276.9 455.7 269.3 C 440.3 262.5 423.0 260.8 406.5 262.8 M 218.3 265.9 C 215.1 272.0 212.1 278.3 207.4 283.5 C 203.1 288.2 197.2 290.9 191.7 294.0 C 191.8 310.0 191.7 326.0 191.8 342.0 C 199.6 342.0 207.4 342.0 215.2 342.0 C 215.3 395.9 215.2 449.8 215.2 503.8 C 231.2 503.8 247.2 503.7 263.2 503.8 C 263.6 494.2 263.3 484.6 263.4 475.0 C 263.4 405.2 263.4 335.4 263.4 265.5 C 249.9 265.4 236.4 265.6 223.0 265.5 C 221.4 265.6 219.7 265.1 218.3 265.9 Z" />
<path fill="#000000" stroke="#000000" stroke-width="0.09375" opacity="1.00" d=" M 406.5 262.8 C 423.0 260.8 440.3 262.5 455.7 269.3 C 473.3 276.9 488.2 290.4 498.3 306.7 C 508.2 322.5 514.2 340.6 516.9 359.0 C 519.8 380.4 519.2 402.4 514.8 423.6 C 510.9 440.8 504.5 457.7 493.8 471.8 C 482.3 487.3 465.7 498.9 447.1 504.1 C 435.9 507.4 424.0 508.4 412.3 507.7 C 393.6 507.0 374.9 500.6 360.4 488.7 C 344.5 476.2 333.9 458.2 327.6 439.2 C 320.3 416.1 318.2 391.5 320.2 367.3 C 321.6 351.0 325.1 334.7 331.7 319.7 C 338.9 303.0 350.4 287.8 365.7 277.7 C 377.8 269.4 392.0 264.5 406.5 262.8 M 407.4 310.7 C 396.3 312.9 386.3 319.6 380.0 329.0 C 371.2 342.0 368.4 357.9 367.3 373.2 C 366.4 390.1 367.2 407.3 372.3 423.6 C 376.0 434.7 382.1 445.4 391.8 452.2 C 403.9 460.8 420.2 462.5 434.3 458.2 C 446.0 454.6 455.0 445.3 460.8 434.8 C 469.0 420.0 471.6 402.8 471.9 386.0 C 472.0 371.5 471.0 356.6 466.3 342.7 C 462.8 332.2 456.1 322.4 446.5 316.5 C 435.0 309.4 420.6 308.2 407.4 310.7 Z" />
<path fill="#000000" stroke="#000000" stroke-width="0.09375" opacity="1.00" d=" M 218.3 265.9 C 219.7 265.1 221.4 265.6 223.0 265.5 C 236.4 265.6 249.9 265.4 263.4 265.5 C 263.4 335.4 263.4 405.2 263.4 475.0 C 263.3 484.6 263.6 494.2 263.2 503.8 C 247.2 503.7 231.2 503.8 215.2 503.8 C 215.2 449.8 215.3 395.9 215.2 342.0 C 207.4 342.0 199.6 342.0 191.8 342.0 C 191.7 326.0 191.8 310.0 191.7 294.0 C 197.2 290.9 203.1 288.2 207.4 283.5 C 212.1 278.3 215.1 272.0 218.3 265.9 Z" />
<path fill="#ffffff" stroke="#ffffff" stroke-width="0.09375" opacity="1.00" d=" M 407.4 310.7 C 420.6 308.2 435.0 309.4 446.5 316.5 C 456.1 322.4 462.8 332.2 466.3 342.7 C 471.0 356.6 472.0 371.5 471.9 386.0 C 471.6 402.8 469.0 420.0 460.8 434.8 C 455.0 445.3 446.0 454.6 434.3 458.2 C 420.2 462.5 403.9 460.8 391.8 452.2 C 382.1 445.4 376.0 434.7 372.3 423.6 C 367.2 407.3 366.4 390.1 367.3 373.2 C 368.4 357.9 371.2 342.0 380.0 329.0 C 386.3 319.6 396.3 312.9 407.4 310.7 Z" />
</svg>
