<?xml version="1.0" encoding="UTF-8" ?>
<!DOCTYPE svg PUBLIC "-//W3C//DTD SVG 1.1//EN" "http://www.w3.org/Graphics/SVG/1.1/DTD/svg11.dtd">
<svg width="700pt" height="700pt" viewBox="0 0 700 700" version="1.1" xmlns="http://www.w3.org/2000/svg">
<path fill="#ffffff" stroke="#ffffff" stroke-width="0.09375" opacity="1.00" d=" M 324.8 18.8 C 328.1 17.4 331.9 18.6 335.2 17.1 C 342.1 16.8 349.1 17.1 356.0 17.0 C 359.4 17.1 363.0 16.5 366.2 17.9 C 374.1 17.9 381.8 20.0 389.6 21.4 C 401.1 24.4 412.5 27.8 423.3 32.7 C 436.8 38.9 449.1 47.2 460.4 56.6 C 464.7 59.2 467.3 63.8 471.6 66.4 C 474.8 68.3 476.1 71.9 478.7 74.3 C 484.7 79.7 489.2 86.5 494.2 92.8 C 503.1 105.4 510.7 119.1 515.1 133.9 C 515.7 135.6 516.1 137.5 517.1 139.0 C 520.8 139.1 524.7 138.4 528.2 139.9 C 531.9 140.4 535.8 139.3 539.4 140.6 C 554.9 142.3 570.1 146.6 584.6 152.4 C 589.2 154.4 593.5 157.1 598.3 158.7 C 604.0 162.0 609.5 165.5 615.2 168.8 C 620.1 172.1 624.7 176.0 629.6 179.4 C 633.2 182.1 635.7 186.1 639.6 188.4 C 641.8 189.8 643.4 192.0 644.8 194.2 C 647.4 197.2 650.6 199.7 653.2 202.8 C 656.8 207.9 660.7 212.7 664.2 217.8 C 666.9 222.4 669.6 227.0 672.6 231.4 C 674.7 237.3 678.1 242.7 680.6 248.4 C 685.6 260.7 689.0 273.6 691.4 286.6 C 692.5 289.4 691.5 292.6 692.6 295.4 C 693.8 299.9 692.0 304.8 693.9 309.2 C 694.1 315.0 694.1 320.9 693.9 326.8 C 692.7 329.4 693.0 332.3 693.0 335.0 C 690.2 355.0 684.1 374.7 674.7 392.7 C 673.0 396.0 671.4 399.4 669.6 402.6 C 665.8 407.9 663.0 413.8 658.8 418.9 C 655.8 423.1 652.5 427.1 649.3 431.2 C 644.6 435.9 639.9 440.6 635.2 445.3 C 630.6 449.0 625.8 452.7 621.0 456.3 C 620.3 460.6 622.6 464.4 623.4 468.6 C 624.9 474.6 626.6 480.6 627.2 486.8 C 628.5 490.1 627.4 493.9 628.9 497.2 C 629.2 506.1 628.9 515.1 629.0 524.0 C 627.3 545.5 621.9 566.9 612.4 586.4 C 611.3 590.6 608.5 593.9 606.7 597.7 C 600.0 609.6 591.8 620.6 582.8 630.8 C 577.2 635.9 572.5 641.9 566.3 646.3 C 562.5 649.5 558.6 652.6 554.6 655.6 C 547.9 659.1 542.3 664.3 535.3 667.3 C 529.1 670.6 522.7 673.5 516.1 676.1 C 509.8 677.9 503.9 681.1 497.4 682.4 C 490.5 685.0 483.1 685.4 475.9 687.0 C 472.9 687.1 469.7 686.6 466.8 687.9 C 459.9 688.1 453.0 688.1 446.2 687.9 C 441.9 686.0 437.1 688.0 432.8 686.2 C 427.5 686.2 422.5 684.1 417.2 683.8 C 402.0 680.2 386.9 675.4 373.0 668.0 C 368.5 666.1 364.8 662.8 360.4 660.6 C 357.0 658.7 354.3 655.7 350.8 653.9 C 348.4 653.5 346.5 655.4 344.6 656.6 C 321.6 672.8 294.3 683.1 266.4 686.4 C 262.0 687.9 257.1 686.0 252.8 687.9 C 247.2 687.9 241.4 688.6 235.9 687.0 C 232.2 686.8 228.4 687.6 224.8 686.2 C 212.5 685.1 200.6 681.8 188.9 678.1 C 174.5 672.6 160.3 666.1 147.7 657.3 C 141.7 653.3 136.4 648.6 130.8 644.3 C 125.4 638.9 120.1 633.6 114.7 628.2 C 107.9 619.7 100.5 611.5 95.0 602.0 C 83.2 582.7 76.2 560.7 72.6 538.4 C 71.5 535.6 72.5 532.4 71.4 529.6 C 70.5 526.2 71.4 522.6 70.9 519.2 C 69.3 514.7 70.1 509.8 70.1 505.2 C 72.1 500.5 70.0 495.3 71.6 490.6 C 72.8 481.2 74.5 471.8 77.9 462.9 C 78.7 460.8 79.5 458.6 78.9 456.4 C 74.4 451.4 68.2 448.3 63.7 443.3 C 57.6 436.7 50.6 431.0 45.2 423.8 C 40.1 418.4 36.4 411.9 32.2 405.8 C 19.1 384.5 10.5 360.2 7.6 335.4 C 6.2 331.7 7.8 327.5 6.1 323.8 C 5.9 317.6 5.9 311.4 6.1 305.2 C 7.9 301.2 6.1 296.7 7.6 292.6 C 11.0 266.2 20.6 240.5 35.3 218.3 C 39.2 213.5 41.8 207.7 46.2 203.1 C 48.6 199.0 52.9 196.5 55.4 192.4 C 56.9 189.9 59.4 188.4 61.7 186.7 C 70.5 177.5 81.4 170.8 92.0 164.0 C 98.2 160.8 104.0 156.9 110.6 154.6 C 124.1 148.2 138.4 143.8 153.1 141.1 C 157.1 141.0 160.9 139.5 164.9 139.9 C 170.7 138.2 176.9 139.3 182.9 139.0 C 185.6 132.6 187.7 126.0 190.7 119.7 C 198.7 102.7 209.0 86.5 222.2 73.2 C 224.5 69.6 227.7 66.7 230.8 63.8 C 234.0 62.1 236.0 59.0 239.0 57.0 C 263.5 37.1 293.3 23.0 324.8 18.8 M 331.1 49.3 C 268.5 56.3 214.6 110.1 207.6 172.7 C 196.2 171.2 184.6 169.9 173.0 170.9 C 157.3 171.7 141.8 175.4 127.3 181.3 C 101.6 191.7 79.2 209.8 63.4 232.4 C 49.2 252.6 41.0 276.6 38.1 301.0 C 32.1 359.2 65.8 419.8 119.2 444.2 C 117.0 450.1 113.5 455.4 111.6 461.4 C 104.2 480.7 101.0 501.5 102.5 522.1 C 104.4 552.6 116.4 582.4 136.3 605.7 C 152.7 625.1 174.5 639.9 198.3 648.8 C 238.4 662.7 284.5 657.6 320.8 635.8 C 331.7 629.5 341.2 621.1 350.1 612.3 C 354.9 615.4 358.4 620.4 363.2 623.8 C 382.9 640.0 407.1 650.9 432.4 654.7 C 462.0 659.4 493.0 654.4 519.7 640.8 C 545.9 627.0 568.7 605.8 582.2 579.2 C 601.4 541.5 604.0 495.0 586.9 456.0 C 585.3 451.9 582.9 448.2 581.1 444.2 C 583.9 442.6 586.8 441.1 589.6 439.5 C 622.2 421.4 646.9 389.9 656.9 354.1 C 666.8 320.5 663.6 283.2 648.2 251.7 C 623.9 198.3 563.1 164.9 505.0 171.0 C 500.9 171.3 496.8 172.6 492.7 172.6 C 489.2 147.8 479.4 123.8 464.0 104.0 C 451.6 87.9 435.7 74.7 417.9 65.1 C 391.6 50.8 360.7 45.5 331.1 49.3 Z" />
<path fill="#007a36" stroke="#007a36" stroke-width="0.09375" opacity="1.00" d=" M 331.1 49.3 C 360.7 45.5 391.6 50.8 417.9 65.1 C 435.7 74.7 451.6 87.9 464.0 104.0 C 479.4 123.8 489.2 147.8 492.7 172.6 C 496.8 172.6 500.9 171.3 505.0 171.0 C 563.1 164.9 623.9 198.3 648.2 251.7 C 663.6 283.2 666.8 320.5 656.9 354.1 C 646.9 389.9 622.2 421.4 589.6 439.5 C 586.8 441.1 583.9 442.6 581.1 444.2 C 582.9 448.2 585.3 451.9 586.9 456.0 C 604.0 495.0 601.4 541.5 582.2 579.2 C 568.7 605.8 545.9 627.0 519.7 640.8 C 493.0 654.4 462.0 659.4 432.4 654.7 C 407.1 650.9 382.9 640.0 363.2 623.8 C 358.4 620.4 354.9 615.4 350.1 612.3 C 341.2 621.1 331.7 629.5 320.8 635.8 C 284.5 657.6 238.4 662.7 198.3 648.8 C 174.5 639.9 152.7 625.1 136.3 605.7 C 116.4 582.4 104.4 552.6 102.5 522.1 C 101.0 501.5 104.2 480.7 111.6 461.4 C 113.5 455.4 117.0 450.1 119.2 444.2 C 65.8 419.8 32.1 359.2 38.1 301.0 C 41.0 276.6 49.2 252.6 63.4 232.4 C 79.2 209.8 101.6 191.7 127.3 181.3 C 141.8 175.4 157.3 171.7 173.0 170.9 C 184.6 169.9 196.2 171.2 207.6 172.7 C 214.6 110.1 268.5 56.3 331.1 49.3 M 342.8 80.5 C 319.3 82.0 296.4 91.2 278.4 106.4 C 262.4 119.8 250.2 137.7 243.9 157.7 C 237.0 177.6 236.7 199.6 241.9 220.0 C 234.4 216.1 227.1 211.9 219.1 209.1 C 193.9 200.1 165.5 200.6 140.6 210.6 C 110.6 222.1 86.4 247.5 76.0 277.9 C 65.1 308.7 68.9 344.2 85.9 372.1 C 96.0 389.2 111.0 403.1 128.3 412.8 C 142.7 420.3 158.7 425.2 175.1 426.1 C 157.3 441.2 143.7 461.5 138.0 484.2 C 132.1 506.1 133.3 529.8 141.1 551.0 C 153.5 585.6 184.1 613.1 220.0 621.2 C 258.5 631.0 301.6 617.7 328.3 588.3 C 337.5 578.1 345.0 566.5 350.1 553.8 C 351.1 555.2 351.9 556.8 352.6 558.4 C 366.8 591.1 397.9 615.6 432.9 622.2 C 455.0 626.6 478.4 624.1 499.0 615.0 C 516.6 607.3 532.2 595.1 543.7 579.7 C 565.7 550.8 572.2 510.9 560.1 476.7 C 554.9 459.9 544.8 444.9 532.4 432.5 C 530.4 430.2 527.6 428.6 525.8 426.1 C 531.3 425.3 537.0 425.0 542.4 423.6 C 577.8 416.3 608.5 390.5 622.0 357.0 C 636.8 322.0 631.8 279.4 609.2 248.8 C 596.6 231.4 578.9 217.8 558.9 210.1 C 541.6 203.4 522.6 201.4 504.2 203.4 C 488.0 205.8 472.3 211.6 458.3 220.0 C 467.3 186.4 459.2 148.8 437.2 121.9 C 414.9 93.8 378.5 77.9 342.8 80.5 Z" />
<path fill="#ffffff" stroke="#ffffff" stroke-width="0.09375" opacity="1.00" d=" M 342.8 80.5 C 378.5 77.9 414.9 93.8 437.2 121.9 C 459.2 148.8 467.3 186.4 458.3 220.0 C 472.3 211.6 488.0 205.8 504.2 203.4 C 522.6 201.4 541.6 203.4 558.9 210.1 C 578.9 217.8 596.6 231.4 609.2 248.8 C 631.8 279.4 636.8 322.0 622.0 357.0 C 608.5 390.5 577.8 416.3 542.4 423.6 C 537.0 425.0 531.3 425.3 525.8 426.1 C 527.6 428.6 530.4 430.2 532.4 432.5 C 544.8 444.9 554.9 459.9 560.1 476.7 C 572.2 510.9 565.7 550.8 543.7 579.7 C 532.2 595.1 516.6 607.3 499.0 615.0 C 478.4 624.1 455.0 626.6 432.9 622.2 C 397.9 615.6 366.8 591.1 352.6 558.4 C 351.9 556.8 351.1 555.2 350.1 553.8 C 345.0 566.5 337.5 578.1 328.3 588.3 C 301.6 617.7 258.5 631.0 220.0 621.2 C 184.1 613.1 153.5 585.6 141.1 551.0 C 133.3 529.8 132.1 506.1 138.0 484.2 C 143.7 461.5 157.3 441.2 175.1 426.1 C 158.7 425.2 142.7 420.3 128.3 412.8 C 111.0 403.1 96.0 389.2 85.9 372.1 C 68.9 344.2 65.1 308.7 76.0 277.9 C 86.4 247.5 110.6 222.1 140.6 210.6 C 165.5 200.6 193.9 200.1 219.1 209.1 C 227.1 211.9 234.4 216.1 241.9 220.0 C 236.7 199.6 237.0 177.6 243.9 157.7 C 250.2 137.7 262.4 119.8 278.4 106.4 C 296.4 91.2 319.3 82.0 342.8 80.5 M 284.1 260.1 C 272.1 265.6 261.8 273.8 251.1 281.2 C 261.9 293.0 273.2 304.3 284.2 316.0 C 293.1 309.8 301.9 303.1 311.9 298.9 C 323.8 293.5 337.1 291.8 350.0 292.0 C 360.5 292.2 371.1 293.9 380.6 298.5 C 385.9 301.1 391.2 304.9 393.2 310.7 C 395.3 316.2 393.7 322.5 389.8 326.8 C 383.7 333.9 374.9 338.0 366.3 341.2 C 361.7 343.0 356.6 343.8 352.1 346.2 C 339.7 352.2 326.4 356.9 315.0 365.0 C 304.1 372.2 294.1 380.7 285.8 390.8 C 270.6 408.6 260.8 430.5 255.1 453.1 C 252.9 464.0 251.9 475.1 251.0 486.2 C 312.7 486.3 374.3 486.2 436.0 486.3 C 438.5 486.3 441.1 486.4 443.6 485.9 C 443.5 470.3 443.5 454.7 443.6 439.1 C 441.4 438.7 439.2 438.7 437.0 438.7 C 394.7 438.8 352.5 438.7 310.2 438.8 C 316.9 426.3 326.3 415.2 337.6 406.6 C 346.0 400.3 355.9 396.5 365.6 392.6 C 374.1 388.9 383.0 386.3 391.3 382.3 C 406.6 375.4 421.1 365.7 430.5 351.5 C 440.5 336.6 442.9 317.5 439.6 300.1 C 436.9 284.8 427.4 271.1 414.8 262.2 C 398.0 250.5 377.2 245.8 357.0 244.7 C 331.9 243.3 306.3 248.2 284.1 260.1 Z" />
<path fill="#000000" stroke="#000000" stroke-width="0.09375" opacity="1.00" d=" M 284.1 260.1 C 306.3 248.2 331.9 243.3 357.0 244.7 C 377.2 245.8 398.0 250.5 414.8 262.2 C 427.4 271.1 436.9 284.8 439.6 300.1 C 442.9 317.5 440.5 336.6 430.5 351.5 C 421.1 365.7 406.6 375.4 391.3 382.3 C 383.0 386.3 374.1 388.9 365.6 392.6 C 355.9 396.5 346.0 400.3 337.6 406.6 C 326.3 415.2 316.9 426.3 310.2 438.8 C 352.5 438.7 394.7 438.8 437.0 438.7 C 439.2 438.7 441.4 438.7 443.6 439.1 C 443.5 454.7 443.5 470.3 443.6 485.9 C 441.1 486.4 438.5 486.3 436.0 486.3 C 374.3 486.2 312.7 486.3 251.0 486.2 C 251.9 475.1 252.9 464.0 255.1 453.1 C 260.8 430.5 270.6 408.6 285.8 390.8 C 294.1 380.7 304.1 372.2 315.0 365.0 C 326.4 356.9 339.7 352.2 352.1 346.2 C 356.6 343.8 361.7 343.0 366.3 341.2 C 374.9 338.0 383.7 333.9 389.8 326.8 C 393.7 322.5 395.3 316.2 393.2 310.7 C 391.2 304.9 385.9 301.1 380.6 298.5 C 371.1 293.9 360.5 292.2 350.0 292.0 C 337.1 291.8 323.8 293.5 311.9 298.9 C 301.9 303.1 293.1 309.8 284.2 316.0 C 273.2 304.3 261.9 293.0 251.1 281.2 C 261.8 273.8 272.1 265.6 284.1 260.1 Z" />
</svg>
