<?xml version="1.0" encoding="UTF-8" ?>
<!DOCTYPE svg PUBLIC "-//W3C//DTD SVG 1.1//EN" "http://www.w3.org/Graphics/SVG/1.1/DTD/svg11.dtd">
<svg width="698pt" height="699pt" viewBox="0 0 698 699" version="1.1" xmlns="http://www.w3.org/2000/svg">
<path fill="#ffffff" stroke="#ffffff" stroke-width="0.09375" opacity="1.00" d=" M 323.8 17.8 C 327.1 16.5 330.9 17.6 334.2 16.1 C 343.7 15.9 353.3 15.9 362.8 16.1 C 365.9 17.6 369.4 16.5 372.6 17.4 C 396.8 21.4 421.0 28.6 441.6 42.4 C 447.8 46.4 453.7 50.9 459.4 55.6 C 463.7 58.2 466.3 62.8 470.6 65.4 C 472.8 66.8 474.4 69.0 475.8 71.2 C 486.5 81.7 495.3 94.1 503.0 107.0 C 506.4 113.7 510.0 120.4 512.4 127.6 C 513.6 131.1 514.5 134.7 516.1 138.0 C 519.8 138.1 523.7 137.4 527.2 138.9 C 530.9 139.4 534.8 138.3 538.4 139.6 C 553.9 141.3 569.1 145.6 583.6 151.4 C 588.2 153.4 592.5 156.1 597.3 157.7 C 603.0 161.0 608.5 164.5 614.2 167.8 C 619.1 171.1 623.7 175.0 628.6 178.4 C 632.2 181.1 634.7 185.1 638.6 187.4 C 640.8 188.8 642.4 191.0 643.8 193.2 C 646.4 196.2 649.6 198.8 652.2 201.8 C 655.8 206.9 659.7 211.7 663.2 216.8 C 665.9 221.4 668.6 226.0 671.6 230.4 C 673.7 236.3 677.1 241.7 679.6 247.4 C 684.6 259.7 688.0 272.6 690.4 285.6 C 691.5 288.4 690.5 291.6 691.6 294.4 C 692.7 298.9 691.0 303.8 692.9 308.2 C 693.1 314.1 693.1 319.9 692.9 325.8 C 691.7 328.4 692.0 331.2 692.0 334.0 C 689.2 354.0 683.1 373.7 673.7 391.7 C 672.0 395.0 670.4 398.4 668.6 401.6 C 664.8 406.9 662.0 412.8 657.8 417.9 C 654.6 422.3 651.2 426.6 647.8 430.8 C 641.7 436.4 636.5 442.9 629.8 447.8 C 626.7 450.5 623.2 452.7 620.0 455.3 C 620.0 456.8 619.9 458.3 620.1 459.8 C 622.9 468.5 625.1 477.5 626.4 486.6 C 627.5 489.7 626.5 493.1 627.9 496.2 C 628.2 505.1 627.9 514.1 628.0 523.0 C 626.3 544.5 620.9 565.9 611.4 585.4 C 610.3 589.6 607.5 592.9 605.7 596.7 C 599.1 608.4 591.1 619.2 582.3 629.3 C 575.5 635.9 569.2 643.0 561.4 648.4 C 554.8 654.4 546.8 658.4 539.6 663.6 C 530.0 668.6 520.3 673.6 509.9 676.9 C 499.7 681.0 489.1 684.0 478.2 685.2 C 474.2 686.8 469.8 685.2 465.8 686.9 C 459.9 687.2 453.9 686.9 448.0 687.0 C 446.2 687.1 444.5 686.7 442.8 686.1 C 439.1 685.7 435.3 686.6 431.8 685.2 C 427.7 685.1 423.8 684.0 419.8 683.2 C 413.1 682.6 406.8 680.2 400.4 678.6 C 382.7 673.2 365.8 665.0 351.2 653.7 C 348.4 651.4 345.4 654.5 343.0 656.0 C 328.7 666.1 312.6 673.7 295.9 678.9 C 289.7 681.3 283.1 682.0 276.8 683.8 C 273.2 684.0 269.8 685.2 266.2 685.2 C 261.6 687.0 256.4 684.9 251.8 686.9 C 246.2 687.0 240.4 687.6 234.9 686.0 C 231.2 685.8 227.4 686.6 223.8 685.2 C 211.5 684.1 199.6 680.8 187.9 677.1 C 173.5 671.6 159.3 665.1 146.7 656.3 C 140.7 652.3 135.4 647.6 129.8 643.3 C 121.6 635.0 113.0 627.2 106.2 617.9 C 93.7 603.4 85.0 586.1 78.9 568.1 C 75.4 555.7 71.6 543.1 70.8 530.2 C 68.9 525.6 71.1 520.4 69.1 515.8 C 69.0 510.8 68.5 505.7 70.0 500.9 C 69.6 492.5 71.2 484.2 72.9 475.9 C 73.8 470.0 76.1 464.4 77.9 458.8 C 78.1 457.6 78.1 456.5 77.9 455.4 C 73.4 450.4 67.2 447.3 62.7 442.3 C 56.6 435.7 49.6 430.0 44.2 422.8 C 38.8 417.1 34.9 410.1 30.4 403.6 C 27.2 397.5 23.2 391.7 20.9 385.1 C 13.6 369.1 8.6 351.9 6.6 334.4 C 5.5 331.5 6.3 328.3 5.9 325.2 C 4.5 322.0 5.1 318.4 5.0 315.0 C 5.1 311.4 4.8 307.8 5.1 304.2 C 6.9 300.2 5.1 295.7 6.6 291.6 C 9.3 269.5 16.7 248.0 27.4 228.4 C 30.3 224.2 32.3 219.5 35.6 215.6 C 38.8 211.1 41.4 206.2 45.2 202.1 C 47.6 198.0 51.9 195.5 54.4 191.4 C 55.9 188.9 58.4 187.4 60.7 185.7 C 69.5 176.5 80.3 169.8 91.0 163.0 C 97.0 159.9 102.5 156.1 108.9 153.9 C 126.5 145.9 145.4 139.8 164.8 138.9 C 170.3 137.1 176.2 138.3 181.9 138.0 C 190.4 113.8 203.1 90.6 221.2 72.2 C 223.5 68.6 226.7 65.7 229.8 62.8 C 233.0 61.1 235.0 58.0 238.0 56.0 C 262.5 36.1 292.3 22.0 323.8 17.8 M 317.2 50.4 C 260.3 62.8 213.1 113.5 206.6 171.7 C 186.0 168.5 164.6 168.7 144.4 174.3 C 117.8 181.1 93.4 195.8 74.9 216.0 C 57.2 234.8 45.1 258.8 39.9 284.1 C 25.0 346.6 59.8 416.6 118.2 443.1 C 116.7 447.1 114.6 450.9 112.8 454.7 C 104.6 474.0 100.5 495.1 101.2 516.0 C 102.2 548.8 114.7 581.1 136.3 605.7 C 150.4 622.5 168.8 635.2 188.7 644.3 C 230.8 662.5 281.4 658.1 320.5 634.5 C 331.1 628.2 340.4 620.0 349.1 611.2 C 352.4 613.2 354.9 616.6 357.9 619.1 C 366.9 627.1 376.9 634.0 387.6 639.5 C 417.3 654.9 452.5 659.4 485.1 651.9 C 515.1 645.4 542.2 628.4 562.6 605.6 C 600.9 561.9 608.7 493.9 580.1 443.2 C 600.0 433.3 618.0 419.2 631.5 401.5 C 651.1 376.1 662.0 344.1 661.5 312.0 C 661.5 283.2 652.0 254.8 636.1 231.0 C 604.9 186.3 546.9 161.2 493.1 171.6 C 491.3 172.1 491.5 170.0 491.2 168.9 C 489.5 157.6 486.5 146.5 482.1 136.0 C 464.9 93.4 425.9 60.6 381.1 50.7 C 360.2 45.9 338.3 46.1 317.2 50.4 Z" />
<path fill="#007a36" stroke="#007a36" stroke-width="0.09375" opacity="1.00" d=" M 317.2 50.4 C 338.3 46.1 360.2 45.9 381.1 50.7 C 425.9 60.6 464.9 93.4 482.1 136.0 C 486.5 146.5 489.5 157.6 491.2 168.9 C 491.5 170.0 491.3 172.1 493.1 171.6 C 546.9 161.2 604.9 186.3 636.1 231.0 C 652.0 254.8 661.5 283.2 661.5 312.0 C 662.0 344.1 651.1 376.1 631.5 401.5 C 618.0 419.2 600.0 433.3 580.1 443.2 C 608.7 493.9 600.9 561.9 562.6 605.6 C 542.2 628.4 515.1 645.4 485.1 651.9 C 452.5 659.4 417.3 654.9 387.6 639.5 C 376.9 634.0 366.9 627.1 357.9 619.1 C 354.9 616.6 352.4 613.2 349.1 611.2 C 340.4 620.0 331.1 628.2 320.5 634.5 C 281.4 658.1 230.8 662.5 188.7 644.3 C 168.8 635.2 150.4 622.5 136.3 605.7 C 114.7 581.1 102.2 548.8 101.2 516.0 C 100.5 495.1 104.6 474.0 112.8 454.7 C 114.6 450.9 116.7 447.1 118.2 443.1 C 59.8 416.6 25.0 346.6 39.9 284.1 C 45.1 258.8 57.2 234.8 74.9 216.0 C 93.4 195.8 117.8 181.1 144.4 174.3 C 164.6 168.7 186.0 168.5 206.6 171.7 C 213.1 113.5 260.3 62.8 317.2 50.4 M 277.4 105.4 C 261.6 118.6 249.5 136.3 243.1 155.9 C 236.1 176.1 235.6 198.4 240.9 219.0 C 236.0 216.7 231.5 213.5 226.4 211.6 C 193.4 196.3 153.0 199.1 122.2 218.2 C 91.1 236.9 70.5 271.7 69.0 307.9 C 67.8 330.9 74.1 354.2 86.4 373.6 C 96.5 389.5 110.9 402.6 127.3 411.8 C 141.8 419.3 157.8 424.3 174.1 425.1 C 153.8 442.0 139.5 465.9 135.0 492.0 C 130.9 514.8 134.1 538.9 144.2 559.8 C 158.4 590.0 187.1 613.2 219.8 620.4 C 258.1 629.8 300.8 616.5 327.3 587.3 C 336.5 577.1 344.1 565.4 349.1 552.7 C 352.4 558.8 355.0 565.3 358.9 571.2 C 370.1 589.0 386.4 603.7 405.5 612.5 C 423.5 621.2 443.9 624.7 463.7 622.9 C 484.0 621.0 503.8 613.3 520.2 601.2 C 551.2 578.5 568.6 538.9 564.6 500.8 C 562.5 481.2 555.7 461.9 543.9 446.1 C 538.5 438.2 531.6 431.6 524.7 425.1 C 527.2 424.7 529.7 424.5 532.2 424.2 C 570.7 419.7 605.5 393.2 620.4 357.4 C 629.5 336.6 631.7 313.0 627.1 290.8 C 620.2 255.4 594.7 224.5 561.4 210.6 C 543.2 202.7 522.9 200.3 503.2 202.4 C 487.0 204.8 471.3 210.5 457.3 219.1 C 464.1 193.2 461.2 164.8 449.1 141.0 C 439.6 121.9 424.5 105.6 406.1 94.8 C 387.8 84.0 366.3 78.5 345.1 79.3 C 320.5 80.2 296.2 89.5 277.4 105.4 Z" />
<path fill="#ffffff" stroke="#ffffff" stroke-width="0.09375" opacity="1.00" d=" M 277.4 105.4 C 296.2 89.5 320.5 80.2 345.1 79.3 C 366.3 78.5 387.8 84.0 406.1 94.8 C 424.5 105.6 439.6 121.9 449.1 141.0 C 461.2 164.8 464.1 193.2 457.3 219.1 C 471.3 210.5 487.0 204.8 503.2 202.4 C 522.9 200.3 543.2 202.7 561.4 210.6 C 594.7 224.5 620.2 255.4 627.1 290.8 C 631.7 313.0 629.5 336.6 620.4 357.4 C 605.5 393.2 570.7 419.7 532.2 424.2 C 529.7 424.5 527.2 424.7 524.7 425.1 C 531.6 431.6 538.5 438.2 543.9 446.1 C 555.7 461.9 562.5 481.2 564.6 500.8 C 568.6 538.9 551.2 578.5 520.2 601.2 C 503.8 613.3 484.0 621.0 463.7 622.9 C 443.9 624.7 423.5 621.2 405.5 612.5 C 386.4 603.7 370.1 589.0 358.9 571.2 C 355.0 565.3 352.4 558.8 349.1 552.7 C 344.1 565.4 336.5 577.1 327.3 587.3 C 300.8 616.5 258.1 629.8 219.8 620.4 C 187.1 613.2 158.4 590.0 144.2 559.8 C 134.1 538.9 130.9 514.8 135.0 492.0 C 139.5 465.9 153.8 442.0 174.1 425.1 C 157.8 424.3 141.8 419.3 127.3 411.8 C 110.9 402.6 96.5 389.5 86.4 373.6 C 74.1 354.2 67.8 330.9 69.0 307.9 C 70.5 271.7 91.1 236.9 122.2 218.2 C 153.0 199.1 193.4 196.3 226.4 211.6 C 231.5 213.5 236.0 216.7 240.9 219.0 C 235.6 198.4 236.1 176.1 243.1 155.9 C 249.5 136.3 261.6 118.6 277.4 105.4 M 257.8 268.8 C 257.9 284.4 257.5 300.0 258.0 315.6 C 300.8 315.5 343.6 315.4 386.5 315.6 C 384.2 319.8 381.2 323.6 378.7 327.7 C 370.4 340.7 362.9 354.3 356.4 368.4 C 336.1 411.3 326.1 458.8 326.2 506.2 C 342.1 506.3 357.9 506.3 373.8 506.2 C 373.8 494.3 374.5 482.5 375.9 470.8 C 380.7 433.1 394.6 397.0 413.1 364.1 C 422.8 346.4 436.3 331.3 450.3 316.9 C 450.2 300.9 450.3 284.8 450.2 268.8 C 386.1 268.7 321.9 268.7 257.8 268.8 Z" />
<path fill="#000000" stroke="#000000" stroke-width="0.09375" opacity="1.00" d=" M 257.8 268.8 C 321.9 268.7 386.1 268.7 450.2 268.8 C 450.3 284.8 450.2 300.9 450.3 316.9 C 436.3 331.3 422.8 346.4 413.1 364.1 C 394.6 397.0 380.7 433.1 375.9 470.8 C 374.5 482.5 373.8 494.3 373.8 506.2 C 357.9 506.3 342.1 506.3 326.2 506.2 C 326.1 458.8 336.1 411.3 356.4 368.4 C 362.9 354.3 370.4 340.7 378.7 327.7 C 381.2 323.6 384.2 319.8 386.5 315.6 C 343.6 315.4 300.8 315.5 258.0 315.6 C 257.5 300.0 257.9 284.4 257.8 268.8 Z" />
</svg>
